<?xml version="1.0" encoding="UTF-8" standalone="no" ?>
<!DOCTYPE sesx>
<sesx version="1.9">

  <session appBuild="14.4.0.38" appVersion="14.4" audioChannelType="stereo" bitDepth="32" duration="17781104" sampleRate="48000">
    <tracks>
      <audioTrack automationLaneOpenState="false" id="10001" index="1" select="false" visible="true">
        <trackParameters trackHeight="134" trackHue="160" trackMinimized="false">
          <name>程小时陆光</name>
        </trackParameters>
        <trackAudioParameters audioChannelType="stereo" automationMode="1" monitoring="false" recordArmed="false" solo="false" soloSafe="false">
          <trackOutput outputID="10000" type="trackID"/>
          <trackInput inputID="1"/>
          <component componentGuid="5136f1e0-8ef4-42fc-878f-015270161394" componentID="Audition.Fader" id="trackFader" name="volume" powered="true">
            <parameter index="0" name="volume" parameterValue="1.41253745555877685546875"/>
            <parameter index="1" name="static gain" parameterValue="1"/>
          </component>
          <component componentGuid="5f896e50-3c0c-492d-85fb-8545d22d8018" componentID="Audition.Mute" id="trackMute" name="Mute" powered="true">
            <parameter index="0" parameterValue="0"/>
            <parameter index="1" name="mute" parameterValue="0"/>
          </component>
          <component componentGuid="02ea00ce-98df-4ad4-a59d-1ca07776eff7" componentID="Audition.StereoPanner" id="trackPan" name="StereoPanner" powered="true">
            <parameter index="0" name="声像" parameterValue="0"/>
          </component>
          <component componentGuid="bbf351fd-d29a-4ac4-9659-3c55e7ec390d" componentID="Audition.EQ" id="trackEQ" name="EQ" powered="false">
            <parameter index="0" name="下限频率" parameterValue="0.000834028352983295917510986328125"/>
            <parameter index="1" name="下限增益" parameterValue="0.5"/>
            <parameter index="2" name="上限频率" parameterValue="0.74979150295257568359375"/>
            <parameter index="3" name="上限频率增益" parameterValue="0.5"/>
            <parameter index="4" name="EQ 频段 1 中置频率" parameterValue="0.00125104258768260478973388671875"/>
            <parameter index="5" name="EQ 频段 1 Q" parameterValue="0.000199989997781813144683837890625"/>
            <parameter index="6" name="EQ 频段 1 增益" parameterValue="0.5"/>
            <parameter index="7" name="EQ 频段 1 启用" parameterValue="1"/>
            <parameter index="8" name="EQ 频段 2 中置频率" parameterValue="0.0075062550604343414306640625"/>
            <parameter index="9" name="EQ 频段 2 Q" parameterValue="0.000199989997781813144683837890625"/>
            <parameter index="10" name="EQ 频段 2 增益" parameterValue="0.5"/>
            <parameter index="11" name="EQ 频段 2 启用" parameterValue="1"/>
            <parameter index="12" name="EQ 频段 3 中置频率" parameterValue="0.0325271077454090118408203125"/>
            <parameter index="13" name="EQ 频段 3 Q" parameterValue="0.000199989997781813144683837890625"/>
            <parameter index="14" name="EQ 频段 3 增益" parameterValue="0.5"/>
            <parameter index="15" name="EQ 频段 3 启用" parameterValue="1"/>
            <parameter index="16" name="EQ 频段 4 中置频率" parameterValue="0.13261051476001739501953125"/>
            <parameter index="17" name="EQ 频段 4 Q" parameterValue="0.000199989997781813144683837890625"/>
            <parameter index="18" name="EQ 频段 4 增益" parameterValue="0.5"/>
            <parameter index="19" name="EQ 频段 4 启用" parameterValue="1"/>
            <parameter index="20" name="EQ 频段 5 中置频率" parameterValue="0.532944142818450927734375"/>
            <parameter index="21" name="EQ 频段 5 Q" parameterValue="0.000199989997781813144683837890625"/>
            <parameter index="22" name="EQ 频段 5 增益" parameterValue="0.5"/>
            <parameter index="23" name="EQ 频段 5 启用" parameterValue="1"/>
            <parameter index="24" name="增益" parameterValue="0.666666686534881591796875"/>
            <parameter index="25" name="恒定 Q" parameterValue="1"/>
            <parameter index="26" name="下限滤镜顺序" parameterValue="0"/>
            <parameter index="27" name="上限频率滤镜顺序" parameterValue="0"/>
            <parameter index="28" name="超静音模式" parameterValue="0"/>
            <parameter index="29" name="下限启用" parameterValue="1"/>
            <parameter index="30" name="上限频率启用" parameterValue="1"/>
            <parameter index="31" name="原始采样率" parameterValue="0.25"/>
            <parameter index="32" name="EQ 频段 1 频带宽" parameterValue="0.002499990165233612060546875"/>
            <parameter index="33" name="EQ 频段 2 频段宽度" parameterValue="0.0099999904632568359375"/>
            <parameter index="34" name="EQ 频段 3 频段宽度" parameterValue="0.0399999916553497314453125"/>
            <parameter index="35" name="EQ 频段 4 频段宽度" parameterValue="0.15999998152256011962890625"/>
            <parameter index="36" name="EQ 频段 5 频段宽度" parameterValue="0.63999998569488525390625"/>
            <parameter index="37" name="高通滤波启用" parameterValue="0"/>
            <parameter index="38" name="高通切除频率" parameterValue="0"/>
            <parameter index="39" name="高通斜率" parameterValue="0.4000000059604644775390625"/>
            <parameter index="40" name="低通滤波启用" parameterValue="0"/>
            <parameter index="41" name="低通切除频率" parameterValue="0.833194315433502197265625"/>
            <parameter index="42" name="低通斜率" parameterValue="0.4000000059604644775390625"/>
            <parameter index="43" name="不使用" parameterValue="0"/>
            <parameter index="44" name="下限图示范围" parameterValue="1"/>
          </component>
        </trackAudioParameters>
        <editParameter parameterIndex="0" slotIndex="4294967280"/>
        <audioClip clipAutoCrossfade="true" crossFadeHeadClipID="-1" crossFadeTailClipID="-1" endPoint="960000" fileID="0" hue="-1" id="0" lockedInTime="false" looped="false" name="第二幕第一场" offline="false" select="false" sourceInPoint="0" sourceOutPoint="960000" startPoint="0" zOrder="8">
          <component componentGuid="7d0fa0ca-cf46-425c-9c0f-8f274ecc4e4a" componentID="Audition.Fader" id="clipGain" name="volume" powered="true">
            <parameter index="0" name="volume" parameterValue="1"/>
            <parameter index="1" name="static gain" parameterValue="1"/>
          </component>
          <component componentGuid="ebde4e92-8d47-4a8e-bb2a-9ebb2a6ef469" componentID="Audition.Mute" id="clipMute" name="Mute" powered="true">
            <parameter index="0" parameterValue="0"/>
            <parameter index="1" name="mute" parameterValue="0"/>
          </component>
          <component componentGuid="e70369ab-58f7-4905-bc05-b7a234206cec" componentID="Audition.StereoPanner" id="clipPan" name="StereoPanner" powered="true">
            <parameter index="0" name="声像" parameterValue="0"/>
          </component>
          <fadeIn crossFadeLinkType="linkedSymmetric" endPoint="0" shape="19" startPoint="0" type="log"/>
          <fadeOut crossFadeLinkType="linkedSymmetric" endPoint="960000" shape="19" startPoint="960000" type="log"/>
          <editParameter parameterIndex="0" slotIndex="4294967280"/>
          <editParameter parameterIndex="0" slotIndex="4294967281"/>
          <channelMap>
            <channel index="0" sourceIndex="0"/>
          </channelMap>
        </audioClip>
        <audioClip clipAutoCrossfade="true" crossFadeHeadClipID="-1" crossFadeTailClipID="-1" endPoint="1710609" fileID="1" hue="-1" id="1" lockedInTime="false" looped="false" name="（粗剪）第二幕第二场" offline="false" select="false" sourceInPoint="0" sourceOutPoint="750609" startPoint="960000" zOrder="0">
          <component componentGuid="db2648a6-9942-4b3f-ae6f-4dc7d2bec2db" componentID="Audition.Fader" id="clipGain" name="volume" powered="true">
            <parameter index="0" name="volume" parameterValue="1"/>
            <parameter index="1" name="static gain" parameterValue="1"/>
          </component>
          <component componentGuid="edce15c4-cef0-4360-a8f3-3f23c1caf9b8" componentID="Audition.Mute" id="clipMute" name="Mute" powered="true">
            <parameter index="0" parameterValue="0"/>
            <parameter index="1" name="mute" parameterValue="0"/>
          </component>
          <component componentGuid="c930852f-be38-47ae-a7b1-5295eb29c87f" componentID="Audition.StereoPanner" id="clipPan" name="StereoPanner" powered="true">
            <parameter index="0" name="声像" parameterValue="0"/>
          </component>
          <fadeIn crossFadeLinkType="linkedSymmetric" endPoint="0" shape="19" startPoint="0" type="log"/>
          <fadeOut crossFadeLinkType="linkedSymmetric" endPoint="750609" shape="19" startPoint="750609" type="log"/>
          <editParameter parameterIndex="0" slotIndex="4294967280"/>
          <editParameter parameterIndex="0" slotIndex="4294967281"/>
          <channelMap>
            <channel index="0" sourceIndex="0"/>
          </channelMap>
        </audioClip>
        <audioClip clipAutoCrossfade="true" crossFadeHeadClipID="-1" crossFadeTailClipID="-1" endPoint="2317301" fileID="2" hue="-1" id="2" lockedInTime="false" looped="false" name="（粗剪）第二幕第三场" offline="false" select="true" sourceInPoint="0" sourceOutPoint="606692" startPoint="1710609" zOrder="1">
          <component componentGuid="1f6d9a60-edfb-4049-9233-27db3f3ecf7f" componentID="Audition.Fader" id="clipGain" name="volume" powered="true">
            <parameter index="0" name="volume" parameterValue="1"/>
            <parameter index="1" name="static gain" parameterValue="1"/>
          </component>
          <component componentGuid="596874e6-1d68-4987-8101-c80fd6e54d32" componentID="Audition.Mute" id="clipMute" name="Mute" powered="true">
            <parameter index="0" parameterValue="0"/>
            <parameter index="1" name="mute" parameterValue="0"/>
          </component>
          <component componentGuid="5e40cf44-0a50-4bd1-b562-227f0e30dbe3" componentID="Audition.StereoPanner" id="clipPan" name="StereoPanner" powered="true">
            <parameter index="0" name="声像" parameterValue="0"/>
          </component>
          <fadeIn crossFadeLinkType="linkedSymmetric" endPoint="0" shape="19" startPoint="0" type="log"/>
          <fadeOut crossFadeLinkType="linkedSymmetric" endPoint="606692" shape="19" startPoint="606692" type="log"/>
          <editParameter parameterIndex="0" slotIndex="4294967281"/>
          <editParameter parameterIndex="0" slotIndex="4294967280"/>
          <channelMap>
            <channel index="0" sourceIndex="0"/>
          </channelMap>
        </audioClip>
        <audioClip clipAutoCrossfade="true" crossFadeHeadClipID="-1" crossFadeTailClipID="-1" endPoint="3521164" fileID="2" hue="-1" id="3" lockedInTime="false" looped="false" name="（粗剪）第二幕第三场" offline="false" select="true" sourceInPoint="703716" sourceOutPoint="1644312" startPoint="2580568" zOrder="7">
          <component componentGuid="e937d4bc-51ba-419e-8770-0944fe1e3b6a" componentID="Audition.Fader" id="clipGain" name="volume" powered="true">
            <parameter index="0" name="volume" parameterValue="1"/>
            <parameter index="1" name="static gain" parameterValue="1"/>
          </component>
          <component componentGuid="4ee2ffde-e2ae-4a10-a233-7a8f9f422591" componentID="Audition.Mute" id="clipMute" name="Mute" powered="true">
            <parameter index="0" parameterValue="0"/>
            <parameter index="1" name="mute" parameterValue="0"/>
          </component>
          <component componentGuid="7ce9978d-fd4f-4275-92b4-7aac641fab81" componentID="Audition.StereoPanner" id="clipPan" name="StereoPanner" powered="true">
            <parameter index="0" name="声像" parameterValue="0"/>
          </component>
          <fadeIn crossFadeLinkType="linkedSymmetric" endPoint="0" shape="19" startPoint="0" type="log"/>
          <fadeOut crossFadeLinkType="linkedSymmetric" endPoint="940596" shape="19" startPoint="940596" type="log"/>
          <editParameter parameterIndex="0" slotIndex="4294967280"/>
          <editParameter parameterIndex="0" slotIndex="4294967281"/>
          <channelMap>
            <channel index="0" sourceIndex="0"/>
          </channelMap>
        </audioClip>
        <audioClip clipAutoCrossfade="true" crossFadeHeadClipID="-1" crossFadeTailClipID="-1" endPoint="3868084" fileID="2" hue="-1" id="4" lockedInTime="false" looped="false" name="（粗剪）第二幕第三场" offline="false" select="true" sourceInPoint="1790974" sourceOutPoint="1895747" startPoint="3763311" zOrder="5">
          <component componentGuid="280961a2-cf51-4dc6-b699-4575bc444f9e" componentID="Audition.Fader" id="clipGain" name="volume" powered="true">
            <parameter index="0" name="volume" parameterValue="1"/>
            <parameter index="1" name="static gain" parameterValue="1"/>
          </component>
          <component componentGuid="c405a471-9536-4686-b195-ac4a79b61221" componentID="Audition.Mute" id="clipMute" name="Mute" powered="true">
            <parameter index="0" parameterValue="0"/>
            <parameter index="1" name="mute" parameterValue="0"/>
          </component>
          <component componentGuid="afccb052-ce47-44c4-9580-ba52d3b2fed0" componentID="Audition.StereoPanner" id="clipPan" name="StereoPanner" powered="true">
            <parameter index="0" name="声像" parameterValue="0"/>
          </component>
          <fadeIn crossFadeLinkType="linkedSymmetric" endPoint="0" shape="19" startPoint="0" type="log"/>
          <fadeOut crossFadeLinkType="linkedSymmetric" endPoint="104773" shape="19" startPoint="104773" type="log"/>
          <editParameter parameterIndex="0" slotIndex="4294967280"/>
          <editParameter parameterIndex="0" slotIndex="4294967281"/>
          <channelMap>
            <channel index="0" sourceIndex="0"/>
          </channelMap>
        </audioClip>
        <audioClip clipAutoCrossfade="true" crossFadeHeadClipID="-1" crossFadeTailClipID="-1" endPoint="5421501" fileID="2" hue="-1" id="5" lockedInTime="false" looped="false" name="（粗剪）第二幕第三场" offline="false" select="true" sourceInPoint="2406005" sourceOutPoint="3362250" startPoint="4465256" zOrder="2">
          <component componentGuid="27c4d598-1a87-4a14-975e-7891918f3576" componentID="Audition.Fader" id="clipGain" name="volume" powered="true">
            <parameter index="0" name="volume" parameterValue="1"/>
            <parameter index="1" name="static gain" parameterValue="1"/>
          </component>
          <component componentGuid="9c20d23e-3ca1-4ae3-9261-78416af8dc09" componentID="Audition.Mute" id="clipMute" name="Mute" powered="true">
            <parameter index="0" parameterValue="0"/>
            <parameter index="1" name="mute" parameterValue="0"/>
          </component>
          <component componentGuid="fca2e477-333a-466a-aa45-88e0618b1fb5" componentID="Audition.StereoPanner" id="clipPan" name="StereoPanner" powered="true">
            <parameter index="0" name="声像" parameterValue="0"/>
          </component>
          <fadeIn crossFadeLinkType="linkedSymmetric" endPoint="0" shape="19" startPoint="0" type="log"/>
          <fadeOut crossFadeLinkType="linkedSymmetric" endPoint="956245" shape="19" startPoint="956245" type="log"/>
          <editParameter parameterIndex="0" slotIndex="4294967280"/>
          <editParameter parameterIndex="0" slotIndex="4294967281"/>
          <channelMap>
            <channel index="0" sourceIndex="0"/>
          </channelMap>
        </audioClip>
        <audioClip clipAutoCrossfade="true" crossFadeHeadClipID="-1" crossFadeTailClipID="-1" endPoint="5974354" fileID="2" hue="-1" id="6" lockedInTime="false" looped="false" name="（粗剪）第二幕第三场" offline="false" select="true" sourceInPoint="3362250" sourceOutPoint="3758825" startPoint="5577779" zOrder="3">
          <component componentGuid="9cad8def-fe7f-4b43-8172-8f123a7fa4e7" componentID="Audition.Fader" id="clipGain" name="volume" powered="true">
            <parameter index="0" name="volume" parameterValue="1"/>
            <parameter index="1" name="static gain" parameterValue="1"/>
          </component>
          <component componentGuid="dce813ac-1876-4267-8aba-8fb284547952" componentID="Audition.Mute" id="clipMute" name="Mute" powered="true">
            <parameter index="0" parameterValue="0"/>
            <parameter index="1" name="mute" parameterValue="0"/>
          </component>
          <component componentGuid="14742295-d1ff-4c69-b272-8035c1226326" componentID="Audition.StereoPanner" id="clipPan" name="StereoPanner" powered="true">
            <parameter index="0" name="声像" parameterValue="0">
              <parameterKeyframes enableSplines="false" readOnly="false">
                <parameterKeyframe sampleOffset="3773192" select="true" type="linear" value="0.5"/>
              </parameterKeyframes>
            </parameter>
          </component>
          <fadeIn crossFadeLinkType="linkedSymmetric" endPoint="0" shape="19" startPoint="0" type="log"/>
          <fadeOut crossFadeLinkType="linkedSymmetric" endPoint="396575" shape="19" startPoint="396575" type="log"/>
          <editParameter parameterIndex="0" slotIndex="4294967280"/>
          <editParameter parameterIndex="0" slotIndex="4294967281"/>
          <channelMap>
            <channel index="0" sourceIndex="0"/>
          </channelMap>
        </audioClip>
        <audioClip clipAutoCrossfade="true" crossFadeHeadClipID="-1" crossFadeTailClipID="-1" endPoint="9760602" fileID="2" hue="-1" id="7" lockedInTime="false" looped="false" name="（粗剪）第二幕第三场" offline="false" select="true" sourceInPoint="3862370" sourceOutPoint="7420272" startPoint="6202700" zOrder="4">
          <component componentGuid="a428d28f-e9c8-4815-9d80-eaf57f9226d5" componentID="Audition.Fader" id="clipGain" name="volume" powered="true">
            <parameter index="0" name="volume" parameterValue="1"/>
            <parameter index="1" name="static gain" parameterValue="1"/>
          </component>
          <component componentGuid="1af6619d-92ca-4ed8-bdf5-1a9c2324cfb6" componentID="Audition.Mute" id="clipMute" name="Mute" powered="true">
            <parameter index="0" parameterValue="0"/>
            <parameter index="1" name="mute" parameterValue="0"/>
          </component>
          <component componentGuid="d8b60834-973f-499d-b759-414e4d00ed0a" componentID="Audition.StereoPanner" id="clipPan" name="StereoPanner" powered="true">
            <parameter index="0" name="声像" parameterValue="0">
              <parameterKeyframes enableSplines="false" readOnly="false">
                <parameterKeyframe sampleOffset="3773192" select="false" type="linear" value="0.5"/>
              </parameterKeyframes>
            </parameter>
          </component>
          <fadeIn crossFadeLinkType="linkedSymmetric" endPoint="0" shape="19" startPoint="0" type="log"/>
          <fadeOut crossFadeLinkType="linkedSymmetric" endPoint="3557902" shape="19" startPoint="3557902" type="log"/>
          <editParameter parameterIndex="0" slotIndex="4294967281"/>
          <editParameter parameterIndex="0" slotIndex="4294967280"/>
          <channelMap>
            <channel index="0" sourceIndex="0"/>
          </channelMap>
        </audioClip>
        <audioClip clipAutoCrossfade="true" crossFadeHeadClipID="-1" crossFadeTailClipID="-1" endPoint="11212995" fileID="2" hue="-1" id="8" lockedInTime="false" looped="false" name="（粗剪）第二幕第三场" offline="false" select="true" sourceInPoint="7420272" sourceOutPoint="8212587" startPoint="10420680" zOrder="6">
          <component componentGuid="deac4b0b-5d71-4b20-939e-473b4cb5b8d9" componentID="Audition.Fader" id="clipGain" name="volume" powered="true">
            <parameter index="0" name="volume" parameterValue="1"/>
            <parameter index="1" name="static gain" parameterValue="1"/>
          </component>
          <component componentGuid="2683a8a5-9dbe-4765-9d33-3e5955cf0199" componentID="Audition.Mute" id="clipMute" name="Mute" powered="true">
            <parameter index="0" parameterValue="0"/>
            <parameter index="1" name="mute" parameterValue="0"/>
          </component>
          <component componentGuid="84baee76-92df-4890-8561-e7db652ad5b7" componentID="Audition.StereoPanner" id="clipPan" name="StereoPanner" powered="true">
            <parameter index="0" name="声像" parameterValue="0">
              <parameterKeyframes enableSplines="false" readOnly="false">
                <parameterKeyframe sampleOffset="3773192" select="false" type="linear" value="0.5"/>
              </parameterKeyframes>
            </parameter>
          </component>
          <fadeIn crossFadeLinkType="linkedSymmetric" endPoint="0" shape="19" startPoint="0" type="log"/>
          <fadeOut crossFadeLinkType="linkedSymmetric" endPoint="792315" shape="19" startPoint="792315" type="log"/>
          <editParameter parameterIndex="0" slotIndex="4294967281"/>
          <editParameter parameterIndex="0" slotIndex="4294967280"/>
          <channelMap>
            <channel index="0" sourceIndex="0"/>
          </channelMap>
        </audioClip>
      </audioTrack>
      <audioTrack automationLaneOpenState="false" id="10002" index="2" select="false" visible="true">
        <trackParameters trackHeight="134" trackHue="267" trackMinimized="false">
          <name>小特</name>
        </trackParameters>
        <trackAudioParameters audioChannelType="stereo" automationMode="1" monitoring="false" recordArmed="false" solo="false" soloSafe="false">
          <trackOutput outputID="10000" type="trackID"/>
          <trackInput inputID="1"/>
          <component componentGuid="880e57a7-7777-4abf-ab06-ffbf6d170139" componentID="Audition.Fader" id="trackFader" name="volume" powered="true">
            <parameter index="0" name="volume" parameterValue="3.1622784137725830078125"/>
            <parameter index="1" name="static gain" parameterValue="1"/>
          </component>
          <component componentGuid="bce9115e-c47c-45e9-b68d-4fa1a9486e24" componentID="Audition.Mute" id="trackMute" name="Mute" powered="true">
            <parameter index="0" parameterValue="0"/>
            <parameter index="1" name="mute" parameterValue="0"/>
          </component>
          <component componentGuid="fd946332-0166-43b7-a805-268adef948ce" componentID="Audition.StereoPanner" id="trackPan" name="StereoPanner" powered="true">
            <parameter index="0" name="声像" parameterValue="0"/>
          </component>
          <component componentGuid="af2676ca-0c45-4b35-a515-bd7492b3b6c3" componentID="Audition.EQ" id="trackEQ" name="EQ" powered="false">
            <parameter index="0" name="下限频率" parameterValue="0.000834028352983295917510986328125"/>
            <parameter index="1" name="下限增益" parameterValue="0.5"/>
            <parameter index="2" name="上限频率" parameterValue="0.74979150295257568359375"/>
            <parameter index="3" name="上限频率增益" parameterValue="0.5"/>
            <parameter index="4" name="EQ 频段 1 中置频率" parameterValue="0.00125104258768260478973388671875"/>
            <parameter index="5" name="EQ 频段 1 Q" parameterValue="0.000199989997781813144683837890625"/>
            <parameter index="6" name="EQ 频段 1 增益" parameterValue="0.5"/>
            <parameter index="7" name="EQ 频段 1 启用" parameterValue="1"/>
            <parameter index="8" name="EQ 频段 2 中置频率" parameterValue="0.0075062550604343414306640625"/>
            <parameter index="9" name="EQ 频段 2 Q" parameterValue="0.000199989997781813144683837890625"/>
            <parameter index="10" name="EQ 频段 2 增益" parameterValue="0.5"/>
            <parameter index="11" name="EQ 频段 2 启用" parameterValue="1"/>
            <parameter index="12" name="EQ 频段 3 中置频率" parameterValue="0.0325271077454090118408203125"/>
            <parameter index="13" name="EQ 频段 3 Q" parameterValue="0.000199989997781813144683837890625"/>
            <parameter index="14" name="EQ 频段 3 增益" parameterValue="0.5"/>
            <parameter index="15" name="EQ 频段 3 启用" parameterValue="1"/>
            <parameter index="16" name="EQ 频段 4 中置频率" parameterValue="0.13261051476001739501953125"/>
            <parameter index="17" name="EQ 频段 4 Q" parameterValue="0.000199989997781813144683837890625"/>
            <parameter index="18" name="EQ 频段 4 增益" parameterValue="0.5"/>
            <parameter index="19" name="EQ 频段 4 启用" parameterValue="1"/>
            <parameter index="20" name="EQ 频段 5 中置频率" parameterValue="0.532944142818450927734375"/>
            <parameter index="21" name="EQ 频段 5 Q" parameterValue="0.000199989997781813144683837890625"/>
            <parameter index="22" name="EQ 频段 5 增益" parameterValue="0.5"/>
            <parameter index="23" name="EQ 频段 5 启用" parameterValue="1"/>
            <parameter index="24" name="增益" parameterValue="0.666666686534881591796875"/>
            <parameter index="25" name="恒定 Q" parameterValue="1"/>
            <parameter index="26" name="下限滤镜顺序" parameterValue="0"/>
            <parameter index="27" name="上限频率滤镜顺序" parameterValue="0"/>
            <parameter index="28" name="超静音模式" parameterValue="0"/>
            <parameter index="29" name="下限启用" parameterValue="1"/>
            <parameter index="30" name="上限频率启用" parameterValue="1"/>
            <parameter index="31" name="原始采样率" parameterValue="0.25"/>
            <parameter index="32" name="EQ 频段 1 频带宽" parameterValue="0.002499990165233612060546875"/>
            <parameter index="33" name="EQ 频段 2 频段宽度" parameterValue="0.0099999904632568359375"/>
            <parameter index="34" name="EQ 频段 3 频段宽度" parameterValue="0.0399999916553497314453125"/>
            <parameter index="35" name="EQ 频段 4 频段宽度" parameterValue="0.15999998152256011962890625"/>
            <parameter index="36" name="EQ 频段 5 频段宽度" parameterValue="0.63999998569488525390625"/>
            <parameter index="37" name="高通滤波启用" parameterValue="0"/>
            <parameter index="38" name="高通切除频率" parameterValue="0"/>
            <parameter index="39" name="高通斜率" parameterValue="0.4000000059604644775390625"/>
            <parameter index="40" name="低通滤波启用" parameterValue="0"/>
            <parameter index="41" name="低通切除频率" parameterValue="0.833194315433502197265625"/>
            <parameter index="42" name="低通斜率" parameterValue="0.4000000059604644775390625"/>
            <parameter index="43" name="不使用" parameterValue="0"/>
            <parameter index="44" name="下限图示范围" parameterValue="1"/>
          </component>
        </trackAudioParameters>
        <editParameter parameterIndex="0" slotIndex="4294967280"/>
        <audioClip clipAutoCrossfade="true" crossFadeHeadClipID="-1" crossFadeTailClipID="-1" endPoint="2580568" fileID="3" hue="-1" id="0" lockedInTime="false" looped="false" name="第二幕小特" offline="false" select="true" sourceInPoint="0" sourceOutPoint="263267" startPoint="2317301" zOrder="0">
          <component componentGuid="4d01ef1d-4674-4eae-aeb8-ce7f22868132" componentID="Audition.Fader" id="clipGain" name="volume" powered="true">
            <parameter index="0" name="volume" parameterValue="1"/>
            <parameter index="1" name="static gain" parameterValue="1"/>
          </component>
          <component componentGuid="1ab40640-170a-4210-8add-177cdafe3485" componentID="Audition.Mute" id="clipMute" name="Mute" powered="true">
            <parameter index="0" parameterValue="0"/>
            <parameter index="1" name="mute" parameterValue="0"/>
          </component>
          <component componentGuid="49b4a775-b9f4-4b3e-a420-f8ba17c706b9" componentID="Audition.StereoPanner" id="clipPan" name="StereoPanner" powered="true">
            <parameter index="0" name="声像" parameterValue="0"/>
          </component>
          <fadeIn crossFadeLinkType="linkedSymmetric" endPoint="0" shape="19" startPoint="0" type="log"/>
          <fadeOut crossFadeLinkType="linkedSymmetric" endPoint="263267" shape="19" startPoint="263267" type="log"/>
          <editParameter parameterIndex="0" slotIndex="4294967280"/>
          <editParameter parameterIndex="0" slotIndex="4294967281"/>
          <channelMap>
            <channel index="0" sourceIndex="0"/>
          </channelMap>
        </audioClip>
        <audioClip clipAutoCrossfade="true" crossFadeHeadClipID="-1" crossFadeTailClipID="-1" endPoint="3763311" fileID="3" hue="-1" id="1" lockedInTime="false" looped="false" name="第二幕小特" offline="false" select="true" sourceInPoint="388086" sourceOutPoint="630233" startPoint="3521164" zOrder="1">
          <component componentGuid="f53a95da-2aea-40e1-9bf0-6c8763232a68" componentID="Audition.Fader" id="clipGain" name="volume" powered="true">
            <parameter index="0" name="volume" parameterValue="1"/>
            <parameter index="1" name="static gain" parameterValue="1"/>
          </component>
          <component componentGuid="794f167e-9f12-4225-afa2-d92b08bb3b8d" componentID="Audition.Mute" id="clipMute" name="Mute" powered="true">
            <parameter index="0" parameterValue="0"/>
            <parameter index="1" name="mute" parameterValue="0"/>
          </component>
          <component componentGuid="2973e7fc-601d-49ca-873e-c6272c0b8446" componentID="Audition.StereoPanner" id="clipPan" name="StereoPanner" powered="true">
            <parameter index="0" name="声像" parameterValue="0"/>
          </component>
          <fadeIn crossFadeLinkType="linkedSymmetric" endPoint="0" shape="19" startPoint="0" type="log"/>
          <fadeOut crossFadeLinkType="linkedSymmetric" endPoint="242147" shape="19" startPoint="242147" type="log"/>
          <editParameter parameterIndex="0" slotIndex="4294967280"/>
          <editParameter parameterIndex="0" slotIndex="4294967281"/>
          <channelMap>
            <channel index="0" sourceIndex="0"/>
          </channelMap>
        </audioClip>
        <audioClip clipAutoCrossfade="true" crossFadeHeadClipID="-1" crossFadeTailClipID="-1" endPoint="4236748" fileID="3" hue="-1" id="2" lockedInTime="false" looped="false" name="第二幕小特" offline="false" select="true" sourceInPoint="630233" sourceOutPoint="998897" startPoint="3868084" zOrder="2">
          <component componentGuid="d8e475f4-abb9-4c24-8911-2e1ae82f68fc" componentID="Audition.Fader" id="clipGain" name="volume" powered="true">
            <parameter index="0" name="volume" parameterValue="1"/>
            <parameter index="1" name="static gain" parameterValue="1"/>
          </component>
          <component componentGuid="5027834e-e018-49ba-a265-412dba854691" componentID="Audition.Mute" id="clipMute" name="Mute" powered="true">
            <parameter index="0" parameterValue="0"/>
            <parameter index="1" name="mute" parameterValue="0"/>
          </component>
          <component componentGuid="9b28e779-f3c6-4e9e-894d-5be796626dec" componentID="Audition.StereoPanner" id="clipPan" name="StereoPanner" powered="true">
            <parameter index="0" name="声像" parameterValue="0"/>
          </component>
          <fadeIn crossFadeLinkType="linkedSymmetric" endPoint="0" shape="19" startPoint="0" type="log"/>
          <fadeOut crossFadeLinkType="linkedSymmetric" endPoint="368664" shape="19" startPoint="368664" type="log"/>
          <editParameter parameterIndex="0" slotIndex="4294967280"/>
          <editParameter parameterIndex="0" slotIndex="4294967281"/>
          <channelMap>
            <channel index="0" sourceIndex="0"/>
          </channelMap>
        </audioClip>
        <audioClip clipAutoCrossfade="true" crossFadeHeadClipID="-1" crossFadeTailClipID="-1" endPoint="4465256" fileID="3" hue="-1" id="3" lockedInTime="false" looped="false" name="第二幕小特" offline="false" select="true" sourceInPoint="1114355" sourceOutPoint="1342863" startPoint="4236748" zOrder="9">
          <component componentGuid="6b68211c-05c6-4a24-bf18-2e2142691cc3" componentID="Audition.Fader" id="clipGain" name="volume" powered="true">
            <parameter index="0" name="volume" parameterValue="1"/>
            <parameter index="1" name="static gain" parameterValue="1"/>
          </component>
          <component componentGuid="65d37e16-4b0c-43fd-9daa-db4f14ff7a7d" componentID="Audition.Mute" id="clipMute" name="Mute" powered="true">
            <parameter index="0" parameterValue="0"/>
            <parameter index="1" name="mute" parameterValue="0"/>
          </component>
          <component componentGuid="00003f47-24a4-4266-98f0-1ddf6db7305d" componentID="Audition.StereoPanner" id="clipPan" name="StereoPanner" powered="true">
            <parameter index="0" name="声像" parameterValue="0"/>
          </component>
          <fadeIn crossFadeLinkType="linkedSymmetric" endPoint="0" shape="19" startPoint="0" type="log"/>
          <fadeOut crossFadeLinkType="linkedSymmetric" endPoint="228508" shape="19" startPoint="228508" type="log"/>
          <editParameter parameterIndex="0" slotIndex="4294967280"/>
          <editParameter parameterIndex="0" slotIndex="4294967281"/>
          <channelMap>
            <channel index="0" sourceIndex="0"/>
          </channelMap>
        </audioClip>
      </audioTrack>
      <audioTrack automationLaneOpenState="false" id="10003" index="3" select="false" visible="true">
        <trackParameters trackHeight="134" trackHue="51" trackMinimized="false">
          <name>小特</name>
        </trackParameters>
        <trackAudioParameters audioChannelType="stereo" automationMode="1" monitoring="false" recordArmed="false" solo="false" soloSafe="false">
          <trackOutput outputID="10000" type="trackID"/>
          <trackInput inputID="1"/>
          <component componentGuid="5da1c17d-1b1b-4346-9cb8-505010380fbe" componentID="Audition.Fader" id="trackFader" name="volume" powered="true">
            <parameter index="0" name="volume" parameterValue="1.7782795429229736328125"/>
            <parameter index="1" name="static gain" parameterValue="1"/>
          </component>
          <component componentGuid="e18b8d72-8c53-4533-b6f9-7076db8e3366" componentID="Audition.Mute" id="trackMute" name="Mute" powered="true">
            <parameter index="0" parameterValue="0"/>
            <parameter index="1" name="mute" parameterValue="0"/>
          </component>
          <component componentGuid="4cf7fb9e-7ec3-4114-8f08-cd958abe0dca" componentID="Audition.StereoPanner" id="trackPan" name="StereoPanner" powered="true">
            <parameter index="0" name="声像" parameterValue="0"/>
          </component>
          <component componentGuid="6cf69f7a-37b9-4cd8-b38e-946e4cfcd931" componentID="Audition.EQ" id="trackEQ" name="EQ" powered="false">
            <parameter index="0" name="下限频率" parameterValue="0.000834028352983295917510986328125"/>
            <parameter index="1" name="下限增益" parameterValue="0.5"/>
            <parameter index="2" name="上限频率" parameterValue="0.74979150295257568359375"/>
            <parameter index="3" name="上限频率增益" parameterValue="0.5"/>
            <parameter index="4" name="EQ 频段 1 中置频率" parameterValue="0.00125104258768260478973388671875"/>
            <parameter index="5" name="EQ 频段 1 Q" parameterValue="0.000199989997781813144683837890625"/>
            <parameter index="6" name="EQ 频段 1 增益" parameterValue="0.5"/>
            <parameter index="7" name="EQ 频段 1 启用" parameterValue="1"/>
            <parameter index="8" name="EQ 频段 2 中置频率" parameterValue="0.0075062550604343414306640625"/>
            <parameter index="9" name="EQ 频段 2 Q" parameterValue="0.000199989997781813144683837890625"/>
            <parameter index="10" name="EQ 频段 2 增益" parameterValue="0.5"/>
            <parameter index="11" name="EQ 频段 2 启用" parameterValue="1"/>
            <parameter index="12" name="EQ 频段 3 中置频率" parameterValue="0.0325271077454090118408203125"/>
            <parameter index="13" name="EQ 频段 3 Q" parameterValue="0.000199989997781813144683837890625"/>
            <parameter index="14" name="EQ 频段 3 增益" parameterValue="0.5"/>
            <parameter index="15" name="EQ 频段 3 启用" parameterValue="1"/>
            <parameter index="16" name="EQ 频段 4 中置频率" parameterValue="0.13261051476001739501953125"/>
            <parameter index="17" name="EQ 频段 4 Q" parameterValue="0.000199989997781813144683837890625"/>
            <parameter index="18" name="EQ 频段 4 增益" parameterValue="0.5"/>
            <parameter index="19" name="EQ 频段 4 启用" parameterValue="1"/>
            <parameter index="20" name="EQ 频段 5 中置频率" parameterValue="0.532944142818450927734375"/>
            <parameter index="21" name="EQ 频段 5 Q" parameterValue="0.000199989997781813144683837890625"/>
            <parameter index="22" name="EQ 频段 5 增益" parameterValue="0.5"/>
            <parameter index="23" name="EQ 频段 5 启用" parameterValue="1"/>
            <parameter index="24" name="增益" parameterValue="0.666666686534881591796875"/>
            <parameter index="25" name="恒定 Q" parameterValue="1"/>
            <parameter index="26" name="下限滤镜顺序" parameterValue="0"/>
            <parameter index="27" name="上限频率滤镜顺序" parameterValue="0"/>
            <parameter index="28" name="超静音模式" parameterValue="0"/>
            <parameter index="29" name="下限启用" parameterValue="1"/>
            <parameter index="30" name="上限频率启用" parameterValue="1"/>
            <parameter index="31" name="原始采样率" parameterValue="0.25"/>
            <parameter index="32" name="EQ 频段 1 频带宽" parameterValue="0.002499990165233612060546875"/>
            <parameter index="33" name="EQ 频段 2 频段宽度" parameterValue="0.0099999904632568359375"/>
            <parameter index="34" name="EQ 频段 3 频段宽度" parameterValue="0.0399999916553497314453125"/>
            <parameter index="35" name="EQ 频段 4 频段宽度" parameterValue="0.15999998152256011962890625"/>
            <parameter index="36" name="EQ 频段 5 频段宽度" parameterValue="0.63999998569488525390625"/>
            <parameter index="37" name="高通滤波启用" parameterValue="0"/>
            <parameter index="38" name="高通切除频率" parameterValue="0"/>
            <parameter index="39" name="高通斜率" parameterValue="0.4000000059604644775390625"/>
            <parameter index="40" name="低通滤波启用" parameterValue="0"/>
            <parameter index="41" name="低通切除频率" parameterValue="0.833194315433502197265625"/>
            <parameter index="42" name="低通斜率" parameterValue="0.4000000059604644775390625"/>
            <parameter index="43" name="不使用" parameterValue="0"/>
            <parameter index="44" name="下限图示范围" parameterValue="1"/>
          </component>
        </trackAudioParameters>
        <editParameter parameterIndex="0" slotIndex="4294967280"/>
        <audioClip clipAutoCrossfade="true" crossFadeHeadClipID="-1" crossFadeTailClipID="-1" endPoint="5690900" fileID="3" hue="-1" id="0" lockedInTime="false" looped="false" name="第二幕小特" offline="false" select="true" sourceInPoint="2196335" sourceOutPoint="2847235" startPoint="5040000" zOrder="0">
          <component componentGuid="5eccd3c5-1362-4fe5-8cd0-bac584576511" componentID="Audition.Fader" id="clipGain" name="volume" powered="true">
            <parameter index="0" name="volume" parameterValue="1"/>
            <parameter index="1" name="static gain" parameterValue="1"/>
          </component>
          <component componentGuid="89e46a72-25d5-4315-8d15-bdb32f4129d2" componentID="Audition.Mute" id="clipMute" name="Mute" powered="true">
            <parameter index="0" parameterValue="0"/>
            <parameter index="1" name="mute" parameterValue="0"/>
          </component>
          <component componentGuid="45b588a7-1541-4e7a-9147-afa7c61df57b" componentID="Audition.StereoPanner" id="clipPan" name="StereoPanner" powered="true">
            <parameter index="0" name="声像" parameterValue="0"/>
          </component>
          <fadeIn crossFadeLinkType="linkedSymmetric" endPoint="0" shape="19" startPoint="0" type="log"/>
          <fadeOut crossFadeLinkType="linkedSymmetric" endPoint="650900" shape="19" startPoint="650900" type="log"/>
          <editParameter parameterIndex="0" slotIndex="4294967280"/>
          <editParameter parameterIndex="0" slotIndex="4294967281"/>
          <channelMap>
            <channel index="0" sourceIndex="0"/>
          </channelMap>
        </audioClip>
        <audioClip clipAutoCrossfade="true" crossFadeHeadClipID="-1" crossFadeTailClipID="-1" endPoint="6222640" fileID="3" hue="-1" id="1" lockedInTime="false" looped="false" name="第二幕小特" offline="false" select="true" sourceInPoint="2847235" sourceOutPoint="3219453" startPoint="5850422" zOrder="1">
          <component componentGuid="a2d41b37-3283-4774-ac2b-0d1e3b30bad6" componentID="Audition.Fader" id="clipGain" name="volume" powered="true">
            <parameter index="0" name="volume" parameterValue="1"/>
            <parameter index="1" name="static gain" parameterValue="1"/>
          </component>
          <component componentGuid="5ad6c40b-69ee-4f35-aadb-3e066b53d3a8" componentID="Audition.Mute" id="clipMute" name="Mute" powered="true">
            <parameter index="0" parameterValue="0"/>
            <parameter index="1" name="mute" parameterValue="0"/>
          </component>
          <component componentGuid="e4f44a38-1db7-43a6-80f0-08bccac030b0" componentID="Audition.StereoPanner" id="clipPan" name="StereoPanner" powered="true">
            <parameter index="0" name="声像" parameterValue="0"/>
          </component>
          <fadeIn crossFadeLinkType="linkedSymmetric" endPoint="0" shape="19" startPoint="0" type="log"/>
          <fadeOut crossFadeLinkType="linkedSymmetric" endPoint="372218" shape="19" startPoint="372218" type="log"/>
          <editParameter parameterIndex="0" slotIndex="4294967280"/>
          <editParameter parameterIndex="0" slotIndex="4294967281"/>
          <channelMap>
            <channel index="0" sourceIndex="0"/>
          </channelMap>
        </audioClip>
        <audioClip clipAutoCrossfade="true" crossFadeHeadClipID="-1" crossFadeTailClipID="-1" endPoint="7456901" fileID="3" hue="-1" id="2" lockedInTime="false" looped="false" name="第二幕小特" offline="false" select="true" sourceInPoint="3219453" sourceOutPoint="4423577" startPoint="6252777" zOrder="2">
          <component componentGuid="fa44657c-d4e1-4e1e-a832-a8bc12c5db4c" componentID="Audition.Fader" id="clipGain" name="volume" powered="true">
            <parameter index="0" name="volume" parameterValue="1"/>
            <parameter index="1" name="static gain" parameterValue="1"/>
          </component>
          <component componentGuid="4d640abc-242b-443e-a57d-710b18503fcb" componentID="Audition.Mute" id="clipMute" name="Mute" powered="true">
            <parameter index="0" parameterValue="0"/>
            <parameter index="1" name="mute" parameterValue="0"/>
          </component>
          <component componentGuid="edc8d060-5d23-41f5-81c5-86c56912fe7b" componentID="Audition.StereoPanner" id="clipPan" name="StereoPanner" powered="true">
            <parameter index="0" name="声像" parameterValue="0"/>
          </component>
          <fadeIn crossFadeLinkType="linkedSymmetric" endPoint="0" shape="19" startPoint="0" type="log"/>
          <fadeOut crossFadeLinkType="linkedSymmetric" endPoint="1204124" shape="19" startPoint="1204124" type="log"/>
          <editParameter parameterIndex="0" slotIndex="4294967281"/>
          <editParameter parameterIndex="0" slotIndex="4294967280"/>
          <channelMap>
            <channel index="0" sourceIndex="0"/>
          </channelMap>
        </audioClip>
        <audioClip clipAutoCrossfade="true" crossFadeHeadClipID="-1" crossFadeTailClipID="-1" endPoint="10750702" fileID="3" hue="-1" id="3" lockedInTime="false" looped="false" name="第二幕小特" offline="false" select="true" sourceInPoint="4555091" sourceOutPoint="7848892" startPoint="7456901" zOrder="3">
          <component componentGuid="999f4972-dbe3-402e-ab57-6ae6a9f6d4f4" componentID="Audition.Fader" id="clipGain" name="volume" powered="true">
            <parameter index="0" name="volume" parameterValue="1"/>
            <parameter index="1" name="static gain" parameterValue="1"/>
          </component>
          <component componentGuid="a565d3ce-14d8-4ac0-b44d-cf1fbf606cc3" componentID="Audition.Mute" id="clipMute" name="Mute" powered="true">
            <parameter index="0" parameterValue="0"/>
            <parameter index="1" name="mute" parameterValue="0"/>
          </component>
          <component componentGuid="d34529eb-ba0e-4b2d-a9ca-659ac271a8f3" componentID="Audition.StereoPanner" id="clipPan" name="StereoPanner" powered="true">
            <parameter index="0" name="声像" parameterValue="0"/>
          </component>
          <fadeIn crossFadeLinkType="linkedSymmetric" endPoint="0" shape="19" startPoint="0" type="log"/>
          <fadeOut crossFadeLinkType="linkedSymmetric" endPoint="3293801" shape="19" startPoint="3293801" type="log"/>
          <editParameter parameterIndex="0" slotIndex="4294967280"/>
          <editParameter parameterIndex="0" slotIndex="4294967281"/>
          <channelMap>
            <channel index="0" sourceIndex="0"/>
          </channelMap>
        </audioClip>
        <audioClip clipAutoCrossfade="true" crossFadeHeadClipID="-1" crossFadeTailClipID="-1" endPoint="11599053" fileID="3" hue="-1" id="4" lockedInTime="false" looped="false" name="第二幕小特" offline="false" select="true" sourceInPoint="7848892" sourceOutPoint="8234950" startPoint="11212995" zOrder="4">
          <component componentGuid="0fff5303-61e1-4a35-abf9-60d7403a0d88" componentID="Audition.Fader" id="clipGain" name="volume" powered="true">
            <parameter index="0" name="volume" parameterValue="1"/>
            <parameter index="1" name="static gain" parameterValue="1"/>
          </component>
          <component componentGuid="12464b34-4f09-4813-ac5e-87441c3b34d2" componentID="Audition.Mute" id="clipMute" name="Mute" powered="true">
            <parameter index="0" parameterValue="0"/>
            <parameter index="1" name="mute" parameterValue="0"/>
          </component>
          <component componentGuid="a9ee6c46-651b-4292-a857-6def6e5b591d" componentID="Audition.StereoPanner" id="clipPan" name="StereoPanner" powered="true">
            <parameter index="0" name="声像" parameterValue="0"/>
          </component>
          <fadeIn crossFadeLinkType="linkedSymmetric" endPoint="0" shape="19" startPoint="0" type="log"/>
          <fadeOut crossFadeLinkType="linkedSymmetric" endPoint="386058" shape="19" startPoint="386058" type="log"/>
          <editParameter parameterIndex="0" slotIndex="4294967280"/>
          <editParameter parameterIndex="0" slotIndex="4294967281"/>
          <channelMap>
            <channel index="0" sourceIndex="0"/>
          </channelMap>
        </audioClip>
        <audioClip clipAutoCrossfade="true" crossFadeHeadClipID="-1" crossFadeTailClipID="-1" endPoint="12161497" fileID="3" hue="-1" id="5" lockedInTime="false" looped="false" name="第二幕小特" offline="false" select="true" sourceInPoint="8234950" sourceOutPoint="8797394" startPoint="11599053" zOrder="5">
          <component componentGuid="470d2ba7-2c38-49ed-9e2b-e0eb3cfa71d8" componentID="Audition.Fader" id="clipGain" name="volume" powered="true">
            <parameter index="0" name="volume" parameterValue="1"/>
            <parameter index="1" name="static gain" parameterValue="1"/>
          </component>
          <component componentGuid="4cac4a5a-fae0-4b0f-937c-6f856609ea71" componentID="Audition.Mute" id="clipMute" name="Mute" powered="true">
            <parameter index="0" parameterValue="0"/>
            <parameter index="1" name="mute" parameterValue="0"/>
          </component>
          <component componentGuid="9c7decbd-d655-4af0-b22e-d3dd27c6c80f" componentID="Audition.StereoPanner" id="clipPan" name="StereoPanner" powered="true">
            <parameter index="0" name="声像" parameterValue="0"/>
          </component>
          <fadeIn crossFadeLinkType="linkedSymmetric" endPoint="0" shape="19" startPoint="0" type="log"/>
          <fadeOut crossFadeLinkType="linkedSymmetric" endPoint="562444" shape="19" startPoint="562444" type="log"/>
          <editParameter parameterIndex="0" slotIndex="4294967281"/>
          <editParameter parameterIndex="0" slotIndex="4294967280"/>
          <channelMap>
            <channel index="0" sourceIndex="0"/>
          </channelMap>
        </audioClip>
      </audioTrack>
      <audioTrack automationLaneOpenState="false" id="10005" index="4" select="true" visible="true">
        <trackParameters trackHeight="134" trackHue="294" trackMinimized="false">
          <name>旁白</name>
        </trackParameters>
        <trackAudioParameters audioChannelType="stereo" automationMode="1" monitoring="false" recordArmed="false" solo="false" soloSafe="false">
          <trackOutput outputID="10000" type="trackID"/>
          <trackInput inputID="1"/>
          <component componentGuid="1b2cb278-aab1-4fb9-ab86-35a710cc4955" componentID="Audition.Fader" id="trackFader" name="volume" powered="true">
            <parameter index="0" name="volume" parameterValue="1"/>
            <parameter index="1" name="static gain" parameterValue="1"/>
          </component>
          <component componentGuid="4f99348a-00d2-4c8b-913f-d09de21f8fba" componentID="Audition.Mute" id="trackMute" name="Mute" powered="true">
            <parameter index="0" parameterValue="0"/>
            <parameter index="1" name="mute" parameterValue="0"/>
          </component>
          <component componentGuid="54a0d756-c45a-440a-995f-73a922e60d8a" componentID="Audition.StereoPanner" id="trackPan" name="StereoPanner" powered="true">
            <parameter index="0" name="声像" parameterValue="0"/>
          </component>
          <component componentGuid="76bb4a9f-07e5-4aeb-aeed-43ffe69d0fe1" componentID="Audition.EQ" id="trackEQ" name="EQ" powered="false">
            <parameter index="0" name="下限频率" parameterValue="0.000834028352983295917510986328125"/>
            <parameter index="1" name="下限增益" parameterValue="0.5"/>
            <parameter index="2" name="上限频率" parameterValue="0.74979150295257568359375"/>
            <parameter index="3" name="上限频率增益" parameterValue="0.5"/>
            <parameter index="4" name="EQ 频段 1 中置频率" parameterValue="0.00125104258768260478973388671875"/>
            <parameter index="5" name="EQ 频段 1 Q" parameterValue="0.000199989997781813144683837890625"/>
            <parameter index="6" name="EQ 频段 1 增益" parameterValue="0.5"/>
            <parameter index="7" name="EQ 频段 1 启用" parameterValue="1"/>
            <parameter index="8" name="EQ 频段 2 中置频率" parameterValue="0.0075062550604343414306640625"/>
            <parameter index="9" name="EQ 频段 2 Q" parameterValue="0.000199989997781813144683837890625"/>
            <parameter index="10" name="EQ 频段 2 增益" parameterValue="0.5"/>
            <parameter index="11" name="EQ 频段 2 启用" parameterValue="1"/>
            <parameter index="12" name="EQ 频段 3 中置频率" parameterValue="0.0325271077454090118408203125"/>
            <parameter index="13" name="EQ 频段 3 Q" parameterValue="0.000199989997781813144683837890625"/>
            <parameter index="14" name="EQ 频段 3 增益" parameterValue="0.5"/>
            <parameter index="15" name="EQ 频段 3 启用" parameterValue="1"/>
            <parameter index="16" name="EQ 频段 4 中置频率" parameterValue="0.13261051476001739501953125"/>
            <parameter index="17" name="EQ 频段 4 Q" parameterValue="0.000199989997781813144683837890625"/>
            <parameter index="18" name="EQ 频段 4 增益" parameterValue="0.5"/>
            <parameter index="19" name="EQ 频段 4 启用" parameterValue="1"/>
            <parameter index="20" name="EQ 频段 5 中置频率" parameterValue="0.532944142818450927734375"/>
            <parameter index="21" name="EQ 频段 5 Q" parameterValue="0.000199989997781813144683837890625"/>
            <parameter index="22" name="EQ 频段 5 增益" parameterValue="0.5"/>
            <parameter index="23" name="EQ 频段 5 启用" parameterValue="1"/>
            <parameter index="24" name="增益" parameterValue="0.666666686534881591796875"/>
            <parameter index="25" name="恒定 Q" parameterValue="1"/>
            <parameter index="26" name="下限滤镜顺序" parameterValue="0"/>
            <parameter index="27" name="上限频率滤镜顺序" parameterValue="0"/>
            <parameter index="28" name="超静音模式" parameterValue="0"/>
            <parameter index="29" name="下限启用" parameterValue="1"/>
            <parameter index="30" name="上限频率启用" parameterValue="1"/>
            <parameter index="31" name="原始采样率" parameterValue="0.25"/>
            <parameter index="32" name="EQ 频段 1 频带宽" parameterValue="0.002499990165233612060546875"/>
            <parameter index="33" name="EQ 频段 2 频段宽度" parameterValue="0.0099999904632568359375"/>
            <parameter index="34" name="EQ 频段 3 频段宽度" parameterValue="0.0399999916553497314453125"/>
            <parameter index="35" name="EQ 频段 4 频段宽度" parameterValue="0.15999998152256011962890625"/>
            <parameter index="36" name="EQ 频段 5 频段宽度" parameterValue="0.63999998569488525390625"/>
            <parameter index="37" name="高通滤波启用" parameterValue="0"/>
            <parameter index="38" name="高通切除频率" parameterValue="0"/>
            <parameter index="39" name="高通斜率" parameterValue="0.4000000059604644775390625"/>
            <parameter index="40" name="低通滤波启用" parameterValue="0"/>
            <parameter index="41" name="低通切除频率" parameterValue="0.833194315433502197265625"/>
            <parameter index="42" name="低通斜率" parameterValue="0.4000000059604644775390625"/>
            <parameter index="43" name="不使用" parameterValue="0"/>
            <parameter index="44" name="下限图示范围" parameterValue="1"/>
          </component>
        </trackAudioParameters>
        <editParameter parameterIndex="0" slotIndex="4294967280"/>
      </audioTrack>
      <audioTrack automationLaneOpenState="false" id="10004" index="5" select="false" visible="true">
        <trackParameters trackHeight="134" trackHue="182" trackMinimized="false">
          <name>轨道5</name>
        </trackParameters>
        <trackAudioParameters audioChannelType="stereo" automationMode="1" monitoring="false" recordArmed="false" solo="false" soloSafe="false">
          <trackOutput outputID="10000" type="trackID"/>
          <trackInput inputID="1"/>
          <component componentGuid="e263c42b-eb3d-48b5-854b-b82d81abe09e" componentID="Audition.Fader" id="trackFader" name="volume" powered="true">
            <parameter index="0" name="volume" parameterValue="1"/>
            <parameter index="1" name="static gain" parameterValue="1"/>
          </component>
          <component componentGuid="dc5a0be9-6a95-481f-bd28-b314a7a9f9fc" componentID="Audition.Mute" id="trackMute" name="Mute" powered="true">
            <parameter index="0" parameterValue="0"/>
            <parameter index="1" name="mute" parameterValue="0"/>
          </component>
          <component componentGuid="a8dba1f7-6029-46e3-9cef-ff9faed7a007" componentID="Audition.StereoPanner" id="trackPan" name="StereoPanner" powered="true">
            <parameter index="0" name="声像" parameterValue="0"/>
          </component>
          <component componentGuid="5e100fd9-d101-4efa-82bb-1de52bedee68" componentID="Audition.EQ" id="trackEQ" name="EQ" powered="false">
            <parameter index="0" name="下限频率" parameterValue="0.000834028352983295917510986328125"/>
            <parameter index="1" name="下限增益" parameterValue="0.5"/>
            <parameter index="2" name="上限频率" parameterValue="0.74979150295257568359375"/>
            <parameter index="3" name="上限频率增益" parameterValue="0.5"/>
            <parameter index="4" name="EQ 频段 1 中置频率" parameterValue="0.00125104258768260478973388671875"/>
            <parameter index="5" name="EQ 频段 1 Q" parameterValue="0.000199989997781813144683837890625"/>
            <parameter index="6" name="EQ 频段 1 增益" parameterValue="0.5"/>
            <parameter index="7" name="EQ 频段 1 启用" parameterValue="1"/>
            <parameter index="8" name="EQ 频段 2 中置频率" parameterValue="0.0075062550604343414306640625"/>
            <parameter index="9" name="EQ 频段 2 Q" parameterValue="0.000199989997781813144683837890625"/>
            <parameter index="10" name="EQ 频段 2 增益" parameterValue="0.5"/>
            <parameter index="11" name="EQ 频段 2 启用" parameterValue="1"/>
            <parameter index="12" name="EQ 频段 3 中置频率" parameterValue="0.0325271077454090118408203125"/>
            <parameter index="13" name="EQ 频段 3 Q" parameterValue="0.000199989997781813144683837890625"/>
            <parameter index="14" name="EQ 频段 3 增益" parameterValue="0.5"/>
            <parameter index="15" name="EQ 频段 3 启用" parameterValue="1"/>
            <parameter index="16" name="EQ 频段 4 中置频率" parameterValue="0.13261051476001739501953125"/>
            <parameter index="17" name="EQ 频段 4 Q" parameterValue="0.000199989997781813144683837890625"/>
            <parameter index="18" name="EQ 频段 4 增益" parameterValue="0.5"/>
            <parameter index="19" name="EQ 频段 4 启用" parameterValue="1"/>
            <parameter index="20" name="EQ 频段 5 中置频率" parameterValue="0.532944142818450927734375"/>
            <parameter index="21" name="EQ 频段 5 Q" parameterValue="0.000199989997781813144683837890625"/>
            <parameter index="22" name="EQ 频段 5 增益" parameterValue="0.5"/>
            <parameter index="23" name="EQ 频段 5 启用" parameterValue="1"/>
            <parameter index="24" name="增益" parameterValue="0.666666686534881591796875"/>
            <parameter index="25" name="恒定 Q" parameterValue="1"/>
            <parameter index="26" name="下限滤镜顺序" parameterValue="0"/>
            <parameter index="27" name="上限频率滤镜顺序" parameterValue="0"/>
            <parameter index="28" name="超静音模式" parameterValue="0"/>
            <parameter index="29" name="下限启用" parameterValue="1"/>
            <parameter index="30" name="上限频率启用" parameterValue="1"/>
            <parameter index="31" name="原始采样率" parameterValue="0.25"/>
            <parameter index="32" name="EQ 频段 1 频带宽" parameterValue="0.002499990165233612060546875"/>
            <parameter index="33" name="EQ 频段 2 频段宽度" parameterValue="0.0099999904632568359375"/>
            <parameter index="34" name="EQ 频段 3 频段宽度" parameterValue="0.0399999916553497314453125"/>
            <parameter index="35" name="EQ 频段 4 频段宽度" parameterValue="0.15999998152256011962890625"/>
            <parameter index="36" name="EQ 频段 5 频段宽度" parameterValue="0.63999998569488525390625"/>
            <parameter index="37" name="高通滤波启用" parameterValue="0"/>
            <parameter index="38" name="高通切除频率" parameterValue="0"/>
            <parameter index="39" name="高通斜率" parameterValue="0.4000000059604644775390625"/>
            <parameter index="40" name="低通滤波启用" parameterValue="0"/>
            <parameter index="41" name="低通切除频率" parameterValue="0.833194315433502197265625"/>
            <parameter index="42" name="低通斜率" parameterValue="0.4000000059604644775390625"/>
            <parameter index="43" name="不使用" parameterValue="0"/>
            <parameter index="44" name="下限图示范围" parameterValue="1"/>
          </component>
        </trackAudioParameters>
        <editParameter parameterIndex="0" slotIndex="4294967280"/>
      </audioTrack>
      <audioTrack automationLaneOpenState="false" id="10006" index="6" select="false" visible="true">
        <trackParameters trackHeight="134" trackHue="92" trackMinimized="false">
          <name>轨道 6</name>
        </trackParameters>
        <trackAudioParameters audioChannelType="stereo" automationMode="1" monitoring="false" recordArmed="false" solo="false" soloSafe="false">
          <trackOutput outputID="10000" type="trackID"/>
          <trackInput inputID="1"/>
          <component componentGuid="88a26ae5-91c3-418b-98d5-e3b40b6bfef7" componentID="Audition.Fader" id="trackFader" name="volume" powered="true">
            <parameter index="0" name="volume" parameterValue="1"/>
            <parameter index="1" name="static gain" parameterValue="1"/>
          </component>
          <component componentGuid="2b10b21a-dcb2-4fcc-a1e1-5992ce53a62b" componentID="Audition.Mute" id="trackMute" name="Mute" powered="true">
            <parameter index="0" parameterValue="0"/>
            <parameter index="1" name="mute" parameterValue="0"/>
          </component>
          <component componentGuid="b23643e1-a609-44aa-99c7-78443154f613" componentID="Audition.StereoPanner" id="trackPan" name="StereoPanner" powered="true">
            <parameter index="0" name="声像" parameterValue="0"/>
          </component>
          <component componentGuid="cb08df66-1db6-4854-9622-4e86bbe332d4" componentID="Audition.EQ" id="trackEQ" name="EQ" powered="false">
            <parameter index="0" name="下限频率" parameterValue="0.000834028352983295917510986328125"/>
            <parameter index="1" name="下限增益" parameterValue="0.5"/>
            <parameter index="2" name="上限频率" parameterValue="0.74979150295257568359375"/>
            <parameter index="3" name="上限频率增益" parameterValue="0.5"/>
            <parameter index="4" name="EQ 频段 1 中置频率" parameterValue="0.00125104258768260478973388671875"/>
            <parameter index="5" name="EQ 频段 1 Q" parameterValue="0.000199989997781813144683837890625"/>
            <parameter index="6" name="EQ 频段 1 增益" parameterValue="0.5"/>
            <parameter index="7" name="EQ 频段 1 启用" parameterValue="1"/>
            <parameter index="8" name="EQ 频段 2 中置频率" parameterValue="0.0075062550604343414306640625"/>
            <parameter index="9" name="EQ 频段 2 Q" parameterValue="0.000199989997781813144683837890625"/>
            <parameter index="10" name="EQ 频段 2 增益" parameterValue="0.5"/>
            <parameter index="11" name="EQ 频段 2 启用" parameterValue="1"/>
            <parameter index="12" name="EQ 频段 3 中置频率" parameterValue="0.0325271077454090118408203125"/>
            <parameter index="13" name="EQ 频段 3 Q" parameterValue="0.000199989997781813144683837890625"/>
            <parameter index="14" name="EQ 频段 3 增益" parameterValue="0.5"/>
            <parameter index="15" name="EQ 频段 3 启用" parameterValue="1"/>
            <parameter index="16" name="EQ 频段 4 中置频率" parameterValue="0.13261051476001739501953125"/>
            <parameter index="17" name="EQ 频段 4 Q" parameterValue="0.000199989997781813144683837890625"/>
            <parameter index="18" name="EQ 频段 4 增益" parameterValue="0.5"/>
            <parameter index="19" name="EQ 频段 4 启用" parameterValue="1"/>
            <parameter index="20" name="EQ 频段 5 中置频率" parameterValue="0.532944142818450927734375"/>
            <parameter index="21" name="EQ 频段 5 Q" parameterValue="0.000199989997781813144683837890625"/>
            <parameter index="22" name="EQ 频段 5 增益" parameterValue="0.5"/>
            <parameter index="23" name="EQ 频段 5 启用" parameterValue="1"/>
            <parameter index="24" name="增益" parameterValue="0.666666686534881591796875"/>
            <parameter index="25" name="恒定 Q" parameterValue="1"/>
            <parameter index="26" name="下限滤镜顺序" parameterValue="0"/>
            <parameter index="27" name="上限频率滤镜顺序" parameterValue="0"/>
            <parameter index="28" name="超静音模式" parameterValue="0"/>
            <parameter index="29" name="下限启用" parameterValue="1"/>
            <parameter index="30" name="上限频率启用" parameterValue="1"/>
            <parameter index="31" name="原始采样率" parameterValue="0.25"/>
            <parameter index="32" name="EQ 频段 1 频带宽" parameterValue="0.002499990165233612060546875"/>
            <parameter index="33" name="EQ 频段 2 频段宽度" parameterValue="0.0099999904632568359375"/>
            <parameter index="34" name="EQ 频段 3 频段宽度" parameterValue="0.0399999916553497314453125"/>
            <parameter index="35" name="EQ 频段 4 频段宽度" parameterValue="0.15999998152256011962890625"/>
            <parameter index="36" name="EQ 频段 5 频段宽度" parameterValue="0.63999998569488525390625"/>
            <parameter index="37" name="高通滤波启用" parameterValue="0"/>
            <parameter index="38" name="高通切除频率" parameterValue="0"/>
            <parameter index="39" name="高通斜率" parameterValue="0.4000000059604644775390625"/>
            <parameter index="40" name="低通滤波启用" parameterValue="0"/>
            <parameter index="41" name="低通切除频率" parameterValue="0.833194315433502197265625"/>
            <parameter index="42" name="低通斜率" parameterValue="0.4000000059604644775390625"/>
            <parameter index="43" name="不使用" parameterValue="0"/>
            <parameter index="44" name="下限图示范围" parameterValue="1"/>
          </component>
        </trackAudioParameters>
        <editParameter parameterIndex="0" slotIndex="4294967280"/>
      </audioTrack>
      <masterTrack automationLaneOpenState="false" id="10000" index="7" select="false" visible="true">
        <trackParameters trackHeight="134" trackHue="-1" trackMinimized="false">
          <name>混合</name>
        </trackParameters>
        <trackAudioParameters audioChannelType="stereo" automationMode="1" monitoring="false" recordArmed="false" solo="false" soloSafe="true">
          <trackOutput outputID="1" type="hardwareOutput"/>
          <trackInput inputID="-1"/>
          <component componentGuid="7a89d128-6ffc-4555-bbad-96f46326ae87" componentID="Audition.Fader" id="trackFader" name="volume" powered="true">
            <parameter index="0" name="volume" parameterValue="1"/>
            <parameter index="1" name="static gain" parameterValue="1"/>
          </component>
          <component componentGuid="875781e4-44a4-48bf-983f-e7f1d6a3116e" componentID="Audition.Mute" id="trackMute" name="Mute" powered="true">
            <parameter index="0" parameterValue="0"/>
            <parameter index="1" name="mute" parameterValue="0"/>
          </component>
          <component componentGuid="d298d5e9-5227-4f5b-bbae-f1831ede6c09" componentID="Audition.StereoPanner" id="trackPan" name="StereoPanner" powered="true">
            <parameter index="0" name="声像" parameterValue="0"/>
          </component>
          <component componentGuid="7efdcb95-88e6-4f95-9542-2e39bea99a36" componentID="Audition.EQ" id="trackEQ" name="EQ" powered="false">
            <parameter index="0" name="下限频率" parameterValue="0.000834028352983295917510986328125"/>
            <parameter index="1" name="下限增益" parameterValue="0.5"/>
            <parameter index="2" name="上限频率" parameterValue="0.74979150295257568359375"/>
            <parameter index="3" name="上限频率增益" parameterValue="0.5"/>
            <parameter index="4" name="EQ 频段 1 中置频率" parameterValue="0.00125104258768260478973388671875"/>
            <parameter index="5" name="EQ 频段 1 Q" parameterValue="0.000199989997781813144683837890625"/>
            <parameter index="6" name="EQ 频段 1 增益" parameterValue="0.5"/>
            <parameter index="7" name="EQ 频段 1 启用" parameterValue="1"/>
            <parameter index="8" name="EQ 频段 2 中置频率" parameterValue="0.0075062550604343414306640625"/>
            <parameter index="9" name="EQ 频段 2 Q" parameterValue="0.000199989997781813144683837890625"/>
            <parameter index="10" name="EQ 频段 2 增益" parameterValue="0.5"/>
            <parameter index="11" name="EQ 频段 2 启用" parameterValue="1"/>
            <parameter index="12" name="EQ 频段 3 中置频率" parameterValue="0.0325271077454090118408203125"/>
            <parameter index="13" name="EQ 频段 3 Q" parameterValue="0.000199989997781813144683837890625"/>
            <parameter index="14" name="EQ 频段 3 增益" parameterValue="0.5"/>
            <parameter index="15" name="EQ 频段 3 启用" parameterValue="1"/>
            <parameter index="16" name="EQ 频段 4 中置频率" parameterValue="0.13261051476001739501953125"/>
            <parameter index="17" name="EQ 频段 4 Q" parameterValue="0.000199989997781813144683837890625"/>
            <parameter index="18" name="EQ 频段 4 增益" parameterValue="0.5"/>
            <parameter index="19" name="EQ 频段 4 启用" parameterValue="1"/>
            <parameter index="20" name="EQ 频段 5 中置频率" parameterValue="0.532944142818450927734375"/>
            <parameter index="21" name="EQ 频段 5 Q" parameterValue="0.000199989997781813144683837890625"/>
            <parameter index="22" name="EQ 频段 5 增益" parameterValue="0.5"/>
            <parameter index="23" name="EQ 频段 5 启用" parameterValue="1"/>
            <parameter index="24" name="增益" parameterValue="0.666666686534881591796875"/>
            <parameter index="25" name="恒定 Q" parameterValue="1"/>
            <parameter index="26" name="下限滤镜顺序" parameterValue="0"/>
            <parameter index="27" name="上限频率滤镜顺序" parameterValue="0"/>
            <parameter index="28" name="超静音模式" parameterValue="0"/>
            <parameter index="29" name="下限启用" parameterValue="1"/>
            <parameter index="30" name="上限频率启用" parameterValue="1"/>
            <parameter index="31" name="原始采样率" parameterValue="0.25"/>
            <parameter index="32" name="EQ 频段 1 频带宽" parameterValue="0.002499990165233612060546875"/>
            <parameter index="33" name="EQ 频段 2 频段宽度" parameterValue="0.0099999904632568359375"/>
            <parameter index="34" name="EQ 频段 3 频段宽度" parameterValue="0.0399999916553497314453125"/>
            <parameter index="35" name="EQ 频段 4 频段宽度" parameterValue="0.15999998152256011962890625"/>
            <parameter index="36" name="EQ 频段 5 频段宽度" parameterValue="0.63999998569488525390625"/>
            <parameter index="37" name="高通滤波启用" parameterValue="0"/>
            <parameter index="38" name="高通切除频率" parameterValue="0"/>
            <parameter index="39" name="高通斜率" parameterValue="0.4000000059604644775390625"/>
            <parameter index="40" name="低通滤波启用" parameterValue="0"/>
            <parameter index="41" name="低通切除频率" parameterValue="0.833194315433502197265625"/>
            <parameter index="42" name="低通斜率" parameterValue="0.4000000059604644775390625"/>
            <parameter index="43" name="不使用" parameterValue="0"/>
            <parameter index="44" name="下限图示范围" parameterValue="1"/>
          </component>
        </trackAudioParameters>
        <editParameter parameterIndex="0" slotIndex="4294967280"/>
      </masterTrack>
    </tracks>
    <sessionState ctiPosition="1710609" smpteStart="0">
      <selectionState selectionDuration="0" selectionStart="1710609"/>
      <viewState horizontalViewDuration="17781104" horizontalViewStart="0" trackControlsWidth="224" verticalScrollOffset="0"/>
      <timeFormatState beatsPerBar="4" beatsPerMinute="120" customFrameRate="12" linkToDefaultTimeSettings="true" noteLength="4" subdivisions="16" timeCodeDropFrame="false" timeCodeFrameRate="30" timeCodeNTSC="false" timeFormat="timeFormatDecimal"/>
      <mixingOptionState defaultPanModeLogarithmic="false" panPower="-3" playOverlappingClips="false"/>
    </sessionState>
    <xmpMetadata><![CDATA[<?xpacket begin="﻿" id="W5M0MpCehiHzreSzNTczkc9d"?>
<x:xmpmeta xmlns:x="adobe:ns:meta/" x:xmptk="Adobe XMP Core 7.0-c000 79.217bca6, 2021/06/14-18:28:11        ">
   <rdf:RDF xmlns:rdf="http://www.w3.org/1999/02/22-rdf-syntax-ns#">
      <rdf:Description rdf:about=""
            xmlns:xmp="http://ns.adobe.com/xap/1.0/"
            xmlns:xmpMM="http://ns.adobe.com/xap/1.0/mm/"
            xmlns:stEvt="http://ns.adobe.com/xap/1.0/sType/ResourceEvent#"
            xmlns:stRef="http://ns.adobe.com/xap/1.0/sType/ResourceRef#"
            xmlns:dc="http://purl.org/dc/elements/1.1/"
            xmlns:xmpDM="http://ns.adobe.com/xmp/1.0/DynamicMedia/">
         <xmp:CreatorTool>Adobe Audition 14.4 (Windows)</xmp:CreatorTool>
         <xmp:CreateDate>2024-12-24T16:05:42+08:00</xmp:CreateDate>
         <xmp:MetadataDate>2024-12-25T13:45:09+08:00</xmp:MetadataDate>
         <xmp:ModifyDate>2024-12-25T13:45:09+08:00</xmp:ModifyDate>
         <xmpMM:InstanceID>xmp.iid:4d17e396-f666-8a4b-8c5c-ce7d765ccf31</xmpMM:InstanceID>
         <xmpMM:DocumentID>xmp.did:4d17e396-f666-8a4b-8c5c-ce7d765ccf31</xmpMM:DocumentID>
         <xmpMM:OriginalDocumentID>xmp.did:055eb6ac-f9b0-134a-9c0f-a8b455701fc3</xmpMM:OriginalDocumentID>
         <xmpMM:History>
            <rdf:Seq>
               <rdf:li rdf:parseType="Resource">
                  <stEvt:action>saved</stEvt:action>
                  <stEvt:instanceID>xmp.iid:055eb6ac-f9b0-134a-9c0f-a8b455701fc3</stEvt:instanceID>
                  <stEvt:when>2024-12-24T16:05:43+08:00</stEvt:when>
                  <stEvt:softwareAgent>Adobe Audition 14.4 (Windows)</stEvt:softwareAgent>
                  <stEvt:changed>/metadata</stEvt:changed>
               </rdf:li>
               <rdf:li rdf:parseType="Resource">
                  <stEvt:action>saved</stEvt:action>
                  <stEvt:instanceID>xmp.iid:7a7c63eb-446d-7c43-8980-400cc2db3cb5</stEvt:instanceID>
                  <stEvt:when>2024-12-24T16:34:36+08:00</stEvt:when>
                  <stEvt:softwareAgent>Adobe Audition 14.4 (Windows)</stEvt:softwareAgent>
                  <stEvt:changed>/metadata</stEvt:changed>
               </rdf:li>
               <rdf:li rdf:parseType="Resource">
                  <stEvt:action>saved</stEvt:action>
                  <stEvt:instanceID>xmp.iid:432190c0-bb29-5748-a327-36460ff85962</stEvt:instanceID>
                  <stEvt:when>2024-12-24T16:34:36+08:00</stEvt:when>
                  <stEvt:softwareAgent>Adobe Audition 14.4 (Windows)</stEvt:softwareAgent>
                  <stEvt:changed>/</stEvt:changed>
               </rdf:li>
               <rdf:li rdf:parseType="Resource">
                  <stEvt:action>saved</stEvt:action>
                  <stEvt:instanceID>xmp.iid:25582574-0dd7-834c-adde-4b4d70f8bbaf</stEvt:instanceID>
                  <stEvt:when>2024-12-24T16:41:25+08:00</stEvt:when>
                  <stEvt:softwareAgent>Adobe Audition 14.4 (Windows)</stEvt:softwareAgent>
                  <stEvt:changed>/metadata</stEvt:changed>
               </rdf:li>
               <rdf:li rdf:parseType="Resource">
                  <stEvt:action>saved</stEvt:action>
                  <stEvt:instanceID>xmp.iid:984c03de-a452-884c-b293-8489994b2c4a</stEvt:instanceID>
                  <stEvt:when>2024-12-24T16:41:25+08:00</stEvt:when>
                  <stEvt:softwareAgent>Adobe Audition 14.4 (Windows)</stEvt:softwareAgent>
                  <stEvt:changed>/</stEvt:changed>
               </rdf:li>
               <rdf:li rdf:parseType="Resource">
                  <stEvt:action>saved</stEvt:action>
                  <stEvt:instanceID>xmp.iid:6bbf6ad4-7332-f147-a61c-412d949c60b4</stEvt:instanceID>
                  <stEvt:when>2024-12-24T16:43:59+08:00</stEvt:when>
                  <stEvt:softwareAgent>Adobe Audition 14.4 (Windows)</stEvt:softwareAgent>
                  <stEvt:changed>/metadata</stEvt:changed>
               </rdf:li>
               <rdf:li rdf:parseType="Resource">
                  <stEvt:action>saved</stEvt:action>
                  <stEvt:instanceID>xmp.iid:0079ae6d-9bca-3a49-85d5-179b4d5feaea</stEvt:instanceID>
                  <stEvt:when>2024-12-24T16:43:59+08:00</stEvt:when>
                  <stEvt:softwareAgent>Adobe Audition 14.4 (Windows)</stEvt:softwareAgent>
                  <stEvt:changed>/</stEvt:changed>
               </rdf:li>
               <rdf:li rdf:parseType="Resource">
                  <stEvt:action>saved</stEvt:action>
                  <stEvt:instanceID>xmp.iid:aeaf624b-f443-a54f-895b-2ddba96f8c31</stEvt:instanceID>
                  <stEvt:when>2024-12-24T16:55:09+08:00</stEvt:when>
                  <stEvt:softwareAgent>Adobe Audition 14.4 (Windows)</stEvt:softwareAgent>
                  <stEvt:changed>/metadata</stEvt:changed>
               </rdf:li>
               <rdf:li rdf:parseType="Resource">
                  <stEvt:action>saved</stEvt:action>
                  <stEvt:instanceID>xmp.iid:857a65b5-5582-3446-bc47-615eb1e90f8b</stEvt:instanceID>
                  <stEvt:when>2024-12-24T16:55:09+08:00</stEvt:when>
                  <stEvt:softwareAgent>Adobe Audition 14.4 (Windows)</stEvt:softwareAgent>
                  <stEvt:changed>/</stEvt:changed>
               </rdf:li>
               <rdf:li rdf:parseType="Resource">
                  <stEvt:action>saved</stEvt:action>
                  <stEvt:instanceID>xmp.iid:4dc8ed3f-a296-c449-acaf-e5e5cc49bb7f</stEvt:instanceID>
                  <stEvt:when>2024-12-24T18:01:38+08:00</stEvt:when>
                  <stEvt:softwareAgent>Adobe Audition 22.0 (Windows)</stEvt:softwareAgent>
                  <stEvt:changed>/metadata</stEvt:changed>
               </rdf:li>
               <rdf:li rdf:parseType="Resource">
                  <stEvt:action>saved</stEvt:action>
                  <stEvt:instanceID>xmp.iid:f863ef55-3d93-8047-b088-a3bce7073438</stEvt:instanceID>
                  <stEvt:when>2024-12-24T18:01:38+08:00</stEvt:when>
                  <stEvt:softwareAgent>Adobe Audition 22.0 (Windows)</stEvt:softwareAgent>
                  <stEvt:changed>/</stEvt:changed>
               </rdf:li>
               <rdf:li rdf:parseType="Resource">
                  <stEvt:action>saved</stEvt:action>
                  <stEvt:instanceID>xmp.iid:302f52f3-3758-2c4b-9c9c-551891b211e2</stEvt:instanceID>
                  <stEvt:when>2024-12-25T09:42:34+08:00</stEvt:when>
                  <stEvt:softwareAgent>Adobe Audition 14.4 (Windows)</stEvt:softwareAgent>
                  <stEvt:changed>/metadata</stEvt:changed>
               </rdf:li>
               <rdf:li rdf:parseType="Resource">
                  <stEvt:action>saved</stEvt:action>
                  <stEvt:instanceID>xmp.iid:1c268ae7-7a79-9d4c-80f0-a54579536126</stEvt:instanceID>
                  <stEvt:when>2024-12-25T09:42:34+08:00</stEvt:when>
                  <stEvt:softwareAgent>Adobe Audition 14.4 (Windows)</stEvt:softwareAgent>
                  <stEvt:changed>/</stEvt:changed>
               </rdf:li>
               <rdf:li rdf:parseType="Resource">
                  <stEvt:action>saved</stEvt:action>
                  <stEvt:instanceID>xmp.iid:5c43aad7-b0ef-5a46-9692-63f71f56cb27</stEvt:instanceID>
                  <stEvt:when>2024-12-25T11:18:59+08:00</stEvt:when>
                  <stEvt:softwareAgent>Adobe Audition 14.4 (Windows)</stEvt:softwareAgent>
                  <stEvt:changed>/metadata</stEvt:changed>
               </rdf:li>
               <rdf:li rdf:parseType="Resource">
                  <stEvt:action>saved</stEvt:action>
                  <stEvt:instanceID>xmp.iid:3e8b9015-dadf-c74f-bc84-5b9511e7031e</stEvt:instanceID>
                  <stEvt:when>2024-12-25T11:18:59+08:00</stEvt:when>
                  <stEvt:softwareAgent>Adobe Audition 14.4 (Windows)</stEvt:softwareAgent>
                  <stEvt:changed>/</stEvt:changed>
               </rdf:li>
               <rdf:li rdf:parseType="Resource">
                  <stEvt:action>saved</stEvt:action>
                  <stEvt:instanceID>xmp.iid:3b83dfac-9252-1e40-9fee-e01a5f7ae70b</stEvt:instanceID>
                  <stEvt:when>2024-12-25T13:45:09+08:00</stEvt:when>
                  <stEvt:softwareAgent>Adobe Audition 14.4 (Windows)</stEvt:softwareAgent>
                  <stEvt:changed>/metadata</stEvt:changed>
               </rdf:li>
               <rdf:li rdf:parseType="Resource">
                  <stEvt:action>saved</stEvt:action>
                  <stEvt:instanceID>xmp.iid:4d17e396-f666-8a4b-8c5c-ce7d765ccf31</stEvt:instanceID>
                  <stEvt:when>2024-12-25T13:45:09+08:00</stEvt:when>
                  <stEvt:softwareAgent>Adobe Audition 14.4 (Windows)</stEvt:softwareAgent>
                  <stEvt:changed>/</stEvt:changed>
               </rdf:li>
            </rdf:Seq>
         </xmpMM:History>
         <xmpMM:DerivedFrom rdf:parseType="Resource">
            <stRef:instanceID>xmp.iid:3b83dfac-9252-1e40-9fee-e01a5f7ae70b</stRef:instanceID>
            <stRef:documentID>xmp.did:055eb6ac-f9b0-134a-9c0f-a8b455701fc3</stRef:documentID>
            <stRef:originalDocumentID>xmp.did:055eb6ac-f9b0-134a-9c0f-a8b455701fc3</stRef:originalDocumentID>
         </xmpMM:DerivedFrom>
         <dc:format>application/xml</dc:format>
         <xmpDM:Tracks>
            <rdf:Bag>
               <rdf:li rdf:parseType="Resource">
                  <xmpDM:trackName>CuePoint Markers</xmpDM:trackName>
                  <xmpDM:trackType>Cue</xmpDM:trackType>
                  <xmpDM:frameRate>f48000</xmpDM:frameRate>
                  <xmpDM:markers>
                     <rdf:Seq>
                        <rdf:li rdf:parseType="Resource">
                           <xmpDM:startTime>0</xmpDM:startTime>
                           <xmpDM:name>旁白</xmpDM:name>
                           <xmpDM:cuePointParams>
                              <rdf:Seq>
                                 <rdf:li rdf:parseType="Resource">
                                    <xmpDM:key>marker_guid</xmpDM:key>
                                    <xmpDM:value>xmp:id:60763e39-6947-bf40-a533-4591c2869cbb</xmpDM:value>
                                 </rdf:li>
                              </rdf:Seq>
                           </xmpDM:cuePointParams>
                           <xmpDM:guid>xmp:id:60763e39-6947-bf40-a533-4591c2869cbb</xmpDM:guid>
                        </rdf:li>
                        <rdf:li rdf:parseType="Resource">
                           <xmpDM:startTime>960000</xmpDM:startTime>
                           <xmpDM:name>第二场</xmpDM:name>
                           <xmpDM:cuePointParams>
                              <rdf:Seq>
                                 <rdf:li rdf:parseType="Resource">
                                    <xmpDM:key>marker_guid</xmpDM:key>
                                    <xmpDM:value>xmp:id:08ac0b56-ce7b-fd47-8147-e62b3930adde</xmpDM:value>
                                 </rdf:li>
                              </rdf:Seq>
                           </xmpDM:cuePointParams>
                           <xmpDM:guid>xmp:id:08ac0b56-ce7b-fd47-8147-e62b3930adde</xmpDM:guid>
                        </rdf:li>
                        <rdf:li rdf:parseType="Resource">
                           <xmpDM:startTime>1710609</xmpDM:startTime>
                           <xmpDM:name>第三场</xmpDM:name>
                           <xmpDM:cuePointParams>
                              <rdf:Seq>
                                 <rdf:li rdf:parseType="Resource">
                                    <xmpDM:key>marker_guid</xmpDM:key>
                                    <xmpDM:value>xmp:id:44f1d111-7ee4-e649-900a-25e9b26e3f2f</xmpDM:value>
                                 </rdf:li>
                              </rdf:Seq>
                           </xmpDM:cuePointParams>
                           <xmpDM:guid>xmp:id:44f1d111-7ee4-e649-900a-25e9b26e3f2f</xmpDM:guid>
                        </rdf:li>
                        <rdf:li rdf:parseType="Resource">
                           <xmpDM:startTime>11212995</xmpDM:startTime>
                           <xmpDM:name>旁白</xmpDM:name>
                           <xmpDM:cuePointParams>
                              <rdf:Seq>
                                 <rdf:li rdf:parseType="Resource">
                                    <xmpDM:key>marker_guid</xmpDM:key>
                                    <xmpDM:value>xmp:id:f17b6b3a-cc47-9745-b70b-2d10e88ea49d</xmpDM:value>
                                 </rdf:li>
                              </rdf:Seq>
                           </xmpDM:cuePointParams>
                           <xmpDM:guid>xmp:id:f17b6b3a-cc47-9745-b70b-2d10e88ea49d</xmpDM:guid>
                        </rdf:li>
                        <rdf:li rdf:parseType="Resource">
                           <xmpDM:startTime>11599053</xmpDM:startTime>
                           <xmpDM:name>旁白</xmpDM:name>
                           <xmpDM:cuePointParams>
                              <rdf:Seq>
                                 <rdf:li rdf:parseType="Resource">
                                    <xmpDM:key>marker_guid</xmpDM:key>
                                    <xmpDM:value>xmp:id:6036971b-2c8f-3044-990b-7d61ae7b0a25</xmpDM:value>
                                 </rdf:li>
                              </rdf:Seq>
                           </xmpDM:cuePointParams>
                           <xmpDM:guid>xmp:id:6036971b-2c8f-3044-990b-7d61ae7b0a25</xmpDM:guid>
                        </rdf:li>
                     </rdf:Seq>
                  </xmpDM:markers>
               </rdf:li>
               <rdf:li rdf:parseType="Resource">
                  <xmpDM:trackName>CD Track Markers</xmpDM:trackName>
                  <xmpDM:trackType>Track</xmpDM:trackType>
                  <xmpDM:frameRate>f48000</xmpDM:frameRate>
               </rdf:li>
               <rdf:li rdf:parseType="Resource">
                  <xmpDM:trackName>Subclip Markers</xmpDM:trackName>
                  <xmpDM:trackType>InOut</xmpDM:trackType>
                  <xmpDM:frameRate>f48000</xmpDM:frameRate>
               </rdf:li>
            </rdf:Bag>
         </xmpDM:Tracks>
      </rdf:Description>
   </rdf:RDF>
</x:xmpmeta>
                                                                                                    
                                                                                                    
                                                                                                    
                                                                                                    
                                                                                                    
                                                                                                    
                                                                                                    
                                                                                                    
                                                                                                    
                                                                                                    
                                                                                                    
                                                                                                    
                                                                                                    
                                                                                                    
                                                                                                    
                                                                                                    
                                                                                                    
                                                                                                    
                                                                                                    
                                                                                                    
                           
<?xpacket end="w"?>]]></xmpMetadata>
    <clipGroups/>
    <metronome enabled="false" pattern="downBeat subdivision subdivision subdivision " soundSet="sticks">
      <metronomeTrack automationLaneOpenState="false" id="40000" index="0" select="false" visible="false">
        <trackParameters trackHeight="77" trackHue="-1" trackMinimized="false">
          <name>节拍器</name>
        </trackParameters>
        <trackAudioParameters audioChannelType="mono" automationMode="1" monitoring="false" recordArmed="false" solo="false" soloSafe="true">
          <trackOutput outputID="10000" type="trackID"/>
          <trackInput inputID="-1"/>
          <component componentGuid="addd46e0-785a-46c3-a87a-060b5ee36c4f" componentID="Audition.Fader" id="trackFader" name="volume" powered="true">
            <parameter index="0" name="volume" parameterValue="0.50118720531463623046875"/>
            <parameter index="1" name="static gain" parameterValue="1"/>
          </component>
          <component componentGuid="83f1079f-cac5-4325-b540-dabf12980c82" componentID="Audition.Mute" id="trackMute" name="Mute" powered="true">
            <parameter index="0" parameterValue="0"/>
            <parameter index="1" name="mute" parameterValue="0"/>
          </component>
          <component componentGuid="b9150e6b-55a4-4e76-b899-e6b27366e194" componentID="Audition.StereoPanner" id="trackPan" name="StereoPanner" powered="true">
            <parameter index="0" name="声像" parameterValue="0"/>
          </component>
          <component componentGuid="26ebfacd-2875-414c-9283-cd1026d0b02d" componentID="Audition.EQ" id="trackEQ" name="EQ" powered="false">
            <parameter index="0" name="下限频率" parameterValue="0.000834028352983295917510986328125"/>
            <parameter index="1" name="下限增益" parameterValue="0.5"/>
            <parameter index="2" name="上限频率" parameterValue="0.74979150295257568359375"/>
            <parameter index="3" name="上限频率增益" parameterValue="0.5"/>
            <parameter index="4" name="EQ 频段 1 中置频率" parameterValue="0.00125104258768260478973388671875"/>
            <parameter index="5" name="EQ 频段 1 Q" parameterValue="0.000199989997781813144683837890625"/>
            <parameter index="6" name="EQ 频段 1 增益" parameterValue="0.5"/>
            <parameter index="7" name="EQ 频段 1 启用" parameterValue="1"/>
            <parameter index="8" name="EQ 频段 2 中置频率" parameterValue="0.0075062550604343414306640625"/>
            <parameter index="9" name="EQ 频段 2 Q" parameterValue="0.000199989997781813144683837890625"/>
            <parameter index="10" name="EQ 频段 2 增益" parameterValue="0.5"/>
            <parameter index="11" name="EQ 频段 2 启用" parameterValue="1"/>
            <parameter index="12" name="EQ 频段 3 中置频率" parameterValue="0.0325271077454090118408203125"/>
            <parameter index="13" name="EQ 频段 3 Q" parameterValue="0.000199989997781813144683837890625"/>
            <parameter index="14" name="EQ 频段 3 增益" parameterValue="0.5"/>
            <parameter index="15" name="EQ 频段 3 启用" parameterValue="1"/>
            <parameter index="16" name="EQ 频段 4 中置频率" parameterValue="0.13261051476001739501953125"/>
            <parameter index="17" name="EQ 频段 4 Q" parameterValue="0.000199989997781813144683837890625"/>
            <parameter index="18" name="EQ 频段 4 增益" parameterValue="0.5"/>
            <parameter index="19" name="EQ 频段 4 启用" parameterValue="1"/>
            <parameter index="20" name="EQ 频段 5 中置频率" parameterValue="0.532944142818450927734375"/>
            <parameter index="21" name="EQ 频段 5 Q" parameterValue="0.000199989997781813144683837890625"/>
            <parameter index="22" name="EQ 频段 5 增益" parameterValue="0.5"/>
            <parameter index="23" name="EQ 频段 5 启用" parameterValue="1"/>
            <parameter index="24" name="增益" parameterValue="0.666666686534881591796875"/>
            <parameter index="25" name="恒定 Q" parameterValue="1"/>
            <parameter index="26" name="下限滤镜顺序" parameterValue="0"/>
            <parameter index="27" name="上限频率滤镜顺序" parameterValue="0"/>
            <parameter index="28" name="超静音模式" parameterValue="0"/>
            <parameter index="29" name="下限启用" parameterValue="1"/>
            <parameter index="30" name="上限频率启用" parameterValue="1"/>
            <parameter index="31" name="原始采样率" parameterValue="0.25"/>
            <parameter index="32" name="EQ 频段 1 频带宽" parameterValue="0.002499990165233612060546875"/>
            <parameter index="33" name="EQ 频段 2 频段宽度" parameterValue="0.0099999904632568359375"/>
            <parameter index="34" name="EQ 频段 3 频段宽度" parameterValue="0.0399999916553497314453125"/>
            <parameter index="35" name="EQ 频段 4 频段宽度" parameterValue="0.15999998152256011962890625"/>
            <parameter index="36" name="EQ 频段 5 频段宽度" parameterValue="0.63999998569488525390625"/>
            <parameter index="37" name="高通滤波启用" parameterValue="0"/>
            <parameter index="38" name="高通切除频率" parameterValue="0"/>
            <parameter index="39" name="高通斜率" parameterValue="0.4000000059604644775390625"/>
            <parameter index="40" name="低通滤波启用" parameterValue="0"/>
            <parameter index="41" name="低通切除频率" parameterValue="0.833194315433502197265625"/>
            <parameter index="42" name="低通斜率" parameterValue="0.4000000059604644775390625"/>
            <parameter index="43" name="不使用" parameterValue="0"/>
            <parameter index="44" name="下限图示范围" parameterValue="1"/>
          </component>
        </trackAudioParameters>
        <editParameter parameterIndex="0" slotIndex="4294967280"/>
      </metronomeTrack>
    </metronome>
    <properties>
      <property key="EssentialSoundConfigurations">[{"Guid":"a8b40e3e-13e7-4c1f-b382-96058f1f691d","Name":"$$$/app/Presets/DefaultPresetName=(Default)","PresetData":{"ModeID":"ambience","Models":{"model_ducking":{},"model_loudness":{"DefaultLoudness":{"type":"float","value":-30},"LoudnessStandard":{"type":"std::uint32_t","value":0},"MaxLoudness":{"type":"float","value":-12},"MinLoudness":{"type":"float","value":-42}},"model_soundeffects":{"ReverbPresets":{"type":"tree::any","value":{"$$$/app/Presets/EssentialSound/ReverbPreset/LargeRoomAmbience=Large Room Ambience":{"type":"array::float","value":[0.051507499068975449,0.32432401180267334,0.29292899370193481,0.30000001192092896,0.20000000298023224,0,0.14285700023174286,0.40000000596046448,0.5,0.69999998807907104,0.30000001192092896,0.25125628709793091,0.03125]},"$$$/app/Presets/EssentialSound/ReverbPreset/OutsideAmbience=Outside Ambience":{"type":"array::float","value":[0.091708503663539886,0.043893899768590927,1,0.5,0.20000000298023224,0.80000001192092896,0.18367299437522888,1,0.5,0,0.80000001192092896,0.25125628709793091,0.03125]},"$$$/app/Presets/EssentialSound/ReverbPreset/RoomAmbience=Room Ambience":{"type":"array::float","value":[0.057788901031017303,0.44944900274276733,0.49494898319244385,0.89999997615814209,0.10000000149011612,0.15000000596046448,0.081632703542709351,0.40000000596046448,0.5,0.80000001192092896,0.20000000298023224,0.25125628709793091,0.03125]},"$$$/app/Presets/EssentialSound/ReverbPreset/WindEffect=Wind Effect":{"type":"array::float","value":[0.19597999751567841,0.6896899938583374,0.69696998596191406,0.25,0.5,0.5,0.23469400405883789,0.51999998092651367,0.5,0.75,0.25,0.25125628709793091,0.03125]}}}},"model_stereowidth":{},"model_volume":{"MaxGain":{"type":"float","value":15},"MinGain":{"type":"float","value":-60}}},"Version":1},"Type":"1c19ca71-c24c-49cd-8dd5-2cc46018507a","Version":1},{"Guid":"58dc27a8-6a2a-480c-bd0c-4b45fff346a6","Name":"$$$/app/Presets/DefaultPresetName=(Default)","PresetData":{"ModeID":"dialog","Models":{"model_clarity":{"EQPresets":{"type":"tree::any","value":{"$$$/app/Presets/EssentialSound/EQPreset/BackgroundVoice=Background Voice":{"type":"array::float","value":[0.12099699676036835,0.5,0.39240506291389465,0,0.5,0.5,0.5,0.5,0.5,0.47827938199043274,0.45772689580917358,0.45778733491897583,0.47946760058403015,0.5,0]},"$$$/app/Presets/EssentialSound/EQPreset/Intercom=Intercom":{"type":"array::float","value":[0.19432899355888367,0.5,1,0,0.071499988436698914,0.071499988436698914,0.071499988436698914,0.40238627791404724,0.48571401834487915,0.5,0.55155748128890991,0.59602576494216919,0.22246670722961426,0.071499988436698914,0]},"$$$/app/Presets/EssentialSound/EQPreset/LockedInTheTrunk=Locked in the Trunk":{"type":"array::float","value":[0.12099699676036835,0.5,0.79746836423873901,0,0.5,0.5,0.5,0.5,0.5,0.32846158742904663,0.15721426904201508,0.15721426904201508,0.15721426904201508,0.15721426904201508,0]},"$$$/app/Presets/EssentialSound/EQPreset/OldRadio=Old Radio":{"type":"array::float","value":[0.12099699676036835,0.5,0.79746836423873901,0,0.15721426904201508,0.15721426904201508,0.15721426904201508,0.28442040085792542,0.48315632343292236,0.36498492956161499,0.52853888273239136,0.43511500954627991,0.27154684066772461,0.15721426904201508,0]},"$$$/app/Presets/EssentialSound/EQPreset/OnTheTelephone=On the Telephone":{"type":"array::float","value":[0.12099699676036835,0.5,0.39240506291389465,0,0.32864287495613098,0.32864287495613098,0.32864287495613098,0.32864287495613098,0.48571401834487915,0.53071397542953491,0.53071397542953491,0.48357096314430237,0.32864287495613098,0.32864287495613098,0]},"$$$/app/Presets/EssentialSound/EQPreset/OutsideOfTheRoom=Outside of the Room":{"type":"array::float","value":[0.12099699676036835,0.5,0.79746836423873901,0,0.42539370059967041,0.47865453362464905,0.5,0.5,0.48571401834487915,0.40073278546333313,0.25656309723854065,0.15721426904201508,0.15721426904201508,0.15721426904201508,0]},"$$$/app/Presets/EssentialSound/EQPreset/PodcastVoice=Podcast Voice":{"type":"array::float","value":[0.12099699676036835,0.5,0.39240506291389465,0,0.5,0.5,0.5,0.51789408922195435,0.50770342350006104,0.5,0.51789408922195435,0.528114914894104,0.5102812647819519,0.5,0]},"$$$/app/Presets/EssentialSound/EQPreset/SubtleBoostFemale=Subtle Boost (Female)":{"type":"array::float","value":[0.096553400158882141,0.5,0.29113924503326416,0,0.5,0.5,0.5,0.5,0.5,0.51933407783508301,0.54642897844314575,0.52706766128540039,0.5,0.5,0]},"$$$/app/Presets/EssentialSound/EQPreset/SubtleBoostMale=Subtle Boost (Male)":{"type":"array::float","value":[0.096553400158882141,0.5,0.29113924503326416,0,0.5,0.5,0.5,0.5,0.5,0.5135338306427002,0.54642897844314575,0.51933407783508301,0.5,0.5,0]},"$$$/app/Presets/EssentialSound/EQPreset/ThatPublicRadioSound=That Public Radio Sound":{"type":"array::float","value":[0.12099699676036835,0.5,0.79746836423873901,0,0.15721426904201508,0.15721426904201508,0.15721426904201508,0.36334344744682312,0.49468311667442322,0.5,0.5,0.5,0.5,0.5,0]},"$$$/app/Presets/EssentialSound/EQPreset/VocalPresence=Vocal Presence":{"type":"array::float","value":[0.096553400158882141,0.5,0.32489451766014099,0,0.3572143018245697,0.3572143018245697,0.46428570151329041,0.47857141494750977,0.4763694703578949,0.49570354819297791,0.55924957990646362,0.56523394584655762,0.50859290361404419,0.46992480754852295,0]}}}},"model_loudness":{"DefaultLoudness":{"type":"float","value":-23},"LoudnessStandard":{"type":"std::uint32_t","value":0},"MaxLoudness":{"type":"float","value":-12},"MinLoudness":{"type":"float","value":-42}},"model_restoration":{"ReduceNoiseMaxSetting":{"type":"array::float","value":[1,0,0,0,0]},"ReduceNoiseMinSetting":{"type":"array::float","value":[0,0,0,0,0]},"ReduceReverbMaxSetting":{"type":"array::float","value":[1,0,1,0,0]},"ReduceReverbMinSetting":{"type":"array::float","value":[0,0,1,0,0]},"ReduceRumbleMaxSetting":{"type":"array::float","value":[1,0.061583578586578369,0.375,0,0,0.00083333335351198912,1,0,1,0.0390625,0.00083408987848088145,0,0.0041666668839752674,0.00022554649331141263,0.0046875001862645149,0.75,0.0052083334885537624,0.75,1,0.75,0.0040520834736526012,0.75,0.0042629167437553406,0.00022554649331141263,0.0064883334562182426,0.00022554649331141263,0.006866666954010725,0.75,0.0071704164147377014,0.00022554649331141263,0.01041458360850811,0.00022554649331141263,0.010900000110268593,0.75,0.011407917365431786,0.00022554649331141263,0.015606249682605267,0.00022554649331141263,0.016333334147930145,0.75,0.017094582319259644,0.00022554649331141263,0.026243748143315315,0.00022554649331141263,0.0274666678160429,0.75,0.028746666386723518,0.00022554649331141263,0.041658751666545868,0.00022554649331141263,0.043600000441074371,0.75,0.045631669461727142,0.00022554649331141263,0.062424581497907639,0.00022554649331141263,0.065333336591720581,0.75,0.068377502262592316,0.00022554649331141263,0.10497540980577469,0.00022554649331141263,0.1098666712641716,0.75,0.11498583108186722,0.00022554649331141263,0.16663584113121033,0.00022554649331141263,0.17440000176429749,0.75,0.18252624571323395,0.00022554649331141263,0.91874998807907104,0.00022554649331141263,1,0.00022554649331141263,0,0,0,0,0,0,0,0,0,0,0,0,0,0,0,0,0,0,0,0,0,0,0,0,0,0,0,0,0,0,0,0,0,0,0,0,0,0,0,0,0,0,0,0,0,0,0,0,0,0,0,0,0,0,0,0,0,0,0,0,0,0,0,0,0,0,0,0,0,0,0,0,0,0,0,0,0,0,0,0,0,0,0,0,0,0,0,0,0,0,0,0,0,0,0,0,0,0,0,0,0,0,0,0,0,0,0,0,0,0,0,0,0,0,0,0,0,0,0,0,0,0,0,0,0,0,0,0,0,0,0,0,0,0,0,0,0,0,0,0,0,0,0,0,0,0,0,0,0,0,0,0,0,0,0,0,0,0,0,0,0,0,0,0,0,0,0,0,0,0,0,0,0,0,0,0,0,0,0,0,0,0,0,0,0,0,0,0,0,0]},"ReduceRumbleMinSetting":{"type":"array::float","value":[1,0.061583578586578369,0.375,0,0,0.00083333335351198912,1,0,1,0.0390625,0.00083408987848088145,0.75,0.0041666668839752674,0.75,0.0046875001862645149,0.75,0.0052083334885537624,0.75,1,0.75,0.91874998807907104,0.61237245798110962,1,0.61237245798110962,0,0,0,0,0,0,0,0,0,0,0,0,0,0,0,0,0,0,0,0,0,0,0,0,0,0,0,0,0,0,0,0,0,0,0,0,0,0,0,0,0,0,0,0,0,0,0,0,0,0,0,0,0,0,0,0,0,0,0,0,0,0,0,0,0,0,0,0,0,0,0,0,0,0,0,0,0,0,0,0,0,0,0,0,0,0,0,0,0,0,0,0,0,0,0,0,0,0,0,0,0,0,0,0,0,0,0,0,0,0,0,0,0,0,0,0,0,0,0,0,0,0,0,0,0,0,0,0,0,0,0,0,0,0,0,0,0,0,0,0,0,0,0,0,0,0,0,0,0,0,0,0,0,0,0,0,0,0,0,0,0,0,0,0,0,0,0,0,0,0,0,0,0,0,0,0,0,0,0,0,0,0,0,0,0,0,0,0,0,0,0,0,0,0,0,0,0,0,0,0,0,0,0,0,0,0,0,0,0,0,0,0,0,0,0,0,0,0,0,0,0,0,0,0,0,0,0,0,0,0,0,0,0,0,0,0,0,0,0,0,0,0]},"ReduceSibilanceMaxSetting":{"type":"array::float","value":[0.5,0.19983997941017151,0.18367347121238708,0.26086956262588501,0.52702701091766357,0,1,0,0,0,0,0.75,1,1,0.40000000596046448]},"ReduceSibilanceMinSetting":{"type":"array::float","value":[0.875,0.19983997941017151,0.18367347121238708,0.19130434095859528,0.25675675272941589,0,1,0,0,0,0,0.75,1,1,0.40000000596046448]}},"model_soundeffects":{"ReverbPresets":{"type":"tree::any","value":{"$$$/app/Presets/EssentialSound/ReverbPreset/Auditorium=Auditorium":{"type":"array::float","value":[0.013047545216977596,0.15895412862300873,1,0.89999997615814209,0,0.52007436752319336,0.41663265228271484,0.46000000834465027,0.5,0.73000001907348633,0.15999999642372131,0.75376886129379272,0.03125]},"$$$/app/Presets/EssentialSound/ReverbPreset/Church=Church":{"type":"array::float","value":[0.032663315534591675,0.39939939975738525,0.79797977209091187,0.25,0.5,0.5,0.2297959178686142,0.72000002861022949,0.5,0.62999999523162842,0.87999999523162842,0.25125628709793091,0.03125]},"$$$/app/Presets/EssentialSound/ReverbPreset/LargeReflectiveRoom=Large Reflective Room":{"type":"array::float","value":[0.0074449013918638229,0.098988421261310577,0.79890537261962891,0.89999997615814209,0.10000000149011612,0.40110713243484497,0.060284845530986786,0.27522978186607361,0.5,0.73000001907348633,0.31999999284744263,0.25125628709793091,0.03125]},"$$$/app/Presets/EssentialSound/ReverbPreset/OutsideTheClub=Outside the Club":{"type":"array::float","value":[0.020615793764591217,0.050136558711528778,0.69696998596191406,0.25,0.094355784356594086,0.22242647409439087,0.1071428582072258,0.2800000011920929,0.5,0.73000001907348633,0.46000000834465027,0.25125628709793091,0.03125]},"$$$/app/Presets/EssentialSound/ReverbPreset/SmallDryRoom=Small Dry Room":{"type":"array::float","value":[0.24623115360736847,0.69975000619888306,0.29292899370193481,0.40000000596046448,0.20000000298023224,0.40000000596046448,0.039285715669393539,0.10000000149011612,0.5,1,0.5,0.75376886129379272,0.03125]},"$$$/app/Presets/EssentialSound/ReverbPreset/ThickenVoice=Thicken Voice":{"type":"array::float","value":[0.19597999751567841,0.23931467533111572,0.69696998596191406,0.25,0.5,0.53999996185302734,0.020408162847161293,0.20945435762405396,0.5,1,0.34999999403953552,0.25125628709793091,0.03125]},"$$$/app/Presets/EssentialSound/ReverbPreset/WarmRoom=Warm Room":{"type":"array::float","value":[0.020100502297282219,0.074074074625968933,0.49494948983192444,0.40000000596046448,0.74960309267044067,0.40000000596046448,0.1239795908331871,0.67000001668930054,0.5,0.85000002384185791,0.56000000238418579,0.25125628709793091,0.03125]},"$$$/app/Presets/EssentialSound/ReverbPreset/WarmVoice=Warm Voice":{"type":"array::float","value":[0.19597989320755005,0.89989989995956421,0,0.40000000596046448,0.20000000298023224,0.40000000596046448,0.10204081982374191,0.090000003576278687,0.5,1,0.30000001192092896,0.25125628709793091,0.03125]}}}},"model_volume":{"MaxGain":{"type":"float","value":15},"MinGain":{"type":"float","value":-60}}},"Version":2},"Type":"1c19ca71-c24c-49cd-8dd5-2cc46018507a","Version":1},{"Guid":"353811fa-4179-435e-8e5e-23028ba15a7a","Name":"$$$/app/Presets/DefaultPresetName=(Default)","PresetData":{"ModeID":"generic","Models":{"model_loudness":{"DefaultLoudness":{"type":"float","value":-24},"LoudnessStandard":{"type":"std::uint32_t","value":0},"MaxLoudness":{"type":"float","value":-12},"MinLoudness":{"type":"float","value":-42}},"model_volume":{"MaxGain":{"type":"float","value":15},"MinGain":{"type":"float","value":-60}}},"Version":1},"Type":"1c19ca71-c24c-49cd-8dd5-2cc46018507a","Version":1},{"Guid":"31ba96a6-5d3e-4d89-b1e1-1dbe3c055d0c","Name":"$$$/app/Presets/DefaultPresetName=(Default)","PresetData":{"ModeID":"music","Models":{"model_ducking":{},"model_duration":{},"model_loudness":{"DefaultLoudness":{"type":"float","value":-25},"LoudnessStandard":{"type":"std::uint32_t","value":0},"MaxLoudness":{"type":"float","value":-12},"MinLoudness":{"type":"float","value":-42}},"model_volume":{"MaxGain":{"type":"float","value":15},"MinGain":{"type":"float","value":-60}}},"Version":1},"Type":"1c19ca71-c24c-49cd-8dd5-2cc46018507a","Version":1},{"Guid":"cea63332-1adc-44a9-a6eb-5490f965859b","Name":"$$$/app/Presets/DefaultPresetName=(Default)","PresetData":{"ModeID":"sfx","Models":{"model_loudness":{"DefaultLoudness":{"type":"float","value":-21},"LoudnessStandard":{"type":"std::uint32_t","value":0},"MaxLoudness":{"type":"float","value":-12},"MinLoudness":{"type":"float","value":-42}},"model_pan":{},"model_soundeffects":{"ReverbPresets":{"type":"tree::any","value":{"$$$/app/Presets/EssentialSound/ReverbPreset/HeavyReverb=Heavy Reverb":{"type":"array::float","value":[0.13316600024700165,0.29929900169372559,1,0.95999997854232788,0.85000002384185791,0.5,0.51530599594116211,0.30000001192092896,0.5,0.5,0.5,0.25125628709793091,0.0625]},"$$$/app/Presets/EssentialSound/ReverbPreset/LightReverb=Light Reverb":{"type":"array::float","value":[0.095477402210235596,0.29929900169372559,0.090909101068973541,1,1,0.80000001192092896,0.22449000179767609,0.60000002384185791,0.5,0.69999998807907104,0.30000001192092896,0.25125628709793091,0.0625]},"$$$/app/Presets/EssentialSound/ReverbPreset/OutsideReverb=Outside Reverb":{"type":"array::float","value":[0.091708503663539886,0.043893899768590927,1,0.5,0.20000000298023224,0.80000001192092896,0.18367299437522888,1,0.5,0,0.80000001192092896,0.25125628709793091,0.0625]},"$$$/app/Presets/EssentialSound/ReverbPreset/RoomReverb=Room Reverb":{"type":"array::float","value":[0.057788901031017303,0.44944900274276733,0.49494898319244385,0.89999997615814209,0.10000000149011612,0.15000000596046448,0.081632703542709351,0.40000000596046448,0.5,0.80000001192092896,0.20000000298023224,0.25125628709793091,0.0625]}}}},"model_volume":{"MaxGain":{"type":"float","value":15},"MinGain":{"type":"float","value":-60}}},"Version":1},"Type":"1c19ca71-c24c-49cd-8dd5-2cc46018507a","Version":1}]</property>
    </properties>
  </session>

  <files>
    <file absolutePath="E:\净灵社戏2024\第2幕\第二幕_混\已导入文件\第二幕第一场.wav" id="0" importerPrivateSettings="Compression:0:0;LargeFileSupport:0:0;SampleType:0:20;" mediaHandler="AmioWav" recoveryID="3df4edd9-63bd-4115-8ba8-f90daa827036" relativePath="../已导入文件/第二幕第一场.wav"/>
    <file absolutePath="E:\净灵社戏2024\第2幕\第二幕_混\已导入文件\（粗剪）第二幕第二场.wav" id="1" importerPrivateSettings="Compression:0:0;LargeFileSupport:0:0;SampleType:0:20;" mediaHandler="AmioWav" recoveryID="d27efb04-d850-47a9-9eb1-511cbfed9d99" relativePath="../已导入文件/（粗剪）第二幕第二场.wav"/>
    <file absolutePath="E:\净灵社戏2024\第2幕\第二幕_混\已导入文件\（粗剪）第二幕第三场.wav" id="2" importerPrivateSettings="Compression:0:0;LargeFileSupport:0:0;SampleType:0:20;" mediaHandler="AmioWav" recoveryID="66d9dc8c-1102-4c59-80c9-5a09c08ff3b7" relativePath="../已导入文件/（粗剪）第二幕第三场.wav"/>
    <file absolutePath="E:\净灵社戏2024\第2幕\第二幕_混\已导入文件\第二幕小特.wav" id="3" importerPrivateSettings="Compression:0:0;LargeFileSupport:0:0;SampleType:0:20;" mediaHandler="AmioWav" recoveryID="6079817e-6519-4241-bbef-2ca310c791ac" relativePath="../已导入文件/第二幕小特.wav"/>
  </files>

  <audioDevice inputID="22222222-2222-2222-2222-22222222" outputID="11111111-1111-1111-1111-11111111">
    <inputPort id="1" name="默认立体声输入"/>
    <inputPort id="2" name="[01M] 系统默认 - 麦克风 (USB Microphone) 1"/>
    <inputPort id="3" name="[02M] 系统默认 - 麦克风 (USB Microphone) 2"/>
    <inputPort id="4" name="[01S] 系统默认 - 麦克风 (USB Microphone) 1"/>
    <outputPort id="1" name="默认输出"/>
    <outputPort id="2" name="[01M] 系统默认 - 扬声器 (Realtek High Definition Audio) 1"/>
    <outputPort id="3" name="[02M] 系统默认 - 扬声器 (Realtek High Definition Audio) 2"/>
    <outputPort id="4" name="默认立体声输出"/>
    <outputPort id="5" name="[01S] 系统默认 - 扬声器 (Realtek High Definition Audio) 1"/>
    <outputPort id="6" name="默认环绕声输出"/>
  </audioDevice>

</sesx>
